<?xml version="1.0" encoding="utf-8"?>
<!-- Generator: Adobe Illustrator 26.1.0, SVG Export Plug-In . SVG Version: 6.00 Build 0)  -->
<svg version="1.1" id="Layer_1" xmlns="http://www.w3.org/2000/svg" xmlns:xlink="http://www.w3.org/1999/xlink" x="0px" y="0px"
	 viewBox="0 0 423 374" style="enable-background:new 0 0 423 374;" xml:space="preserve">
<style type="text/css">
	.st0{fill:#E6E6E6;}
	.st1{fill:#FFFFFF;}
	.st2{fill:#CCCCCC;}
	.st3{fill:#3276BF;}
	.st4{fill:#455A64;}
	.st5{fill:#3F3D56;}
	.st6{fill:#2F2E41;}
	.st7{fill:#FFB8B8;}
	.st8{fill:#575A89;}
	.st9{opacity:0.2;enable-background:new    ;}
</style>
<g id="undraw_remotely_2j6y_-_Copy" transform="translate(0 -0.1)">
	<path id="Path_18" class="st0" d="M164.15,10.57l1.68-2.59c-0.48-1.36-1.06-2.69-1.72-3.98L163,4.87l0.86-1.29
		c-0.81-1.58-1.44-2.59-1.44-2.59c-2.06,3.35-3.56,7-4.45,10.82l2.16,3.31l-2.35-1.92c-0.1,0.65-0.14,1.31-0.14,1.96
		c0,6.56,2.15,11.93,4.79,11.93s4.79-5.32,4.79-11.93c-0.05-2.09-0.42-4.16-1.1-6.13L164.15,10.57z"/>
	<path id="Path_19" class="st0" d="M175.89,16.27l2.97-0.62c0.62-1.31,1.16-2.65,1.63-4.02l-1.39-0.14l1.53-0.33
		c0.32-0.94,0.59-1.9,0.81-2.87c-3.81,0.91-7.45,2.43-10.78,4.5l-0.81,3.83l-0.33-3.02c-0.53,0.39-1.02,0.82-1.48,1.29
		c-4.65,4.65-6.9,9.96-5.03,11.83s7.18-0.38,11.83-5.03c1.43-1.53,2.64-3.26,3.59-5.12L175.89,16.27z"/>
	<path id="Path_20" class="st0" d="M176.99,41.75c-6.95,0.43-14.51-0.05-22.51,0V23.36c7.47,1.05,15.05,1.05,22.51,0V41.75z"/>
	<path id="Path_21" class="st0" d="M226.61,56.12l1.1-1.68c-0.31-0.89-0.68-1.75-1.1-2.59l-0.72,0.57l0.58-0.86
		c-0.28-0.58-0.6-1.14-0.96-1.68c-1.33,2.19-2.31,4.56-2.92,7.04l1.39,2.16l-1.53-1.25c-0.06,0.43-0.09,0.86-0.1,1.29
		c0,4.31,1.39,7.76,3.11,7.76s3.11-3.5,3.11-7.76c-0.04-1.37-0.29-2.72-0.72-4.02L226.61,56.12z"/>
	<path id="Path_22" class="st0" d="M234.28,59.81l1.96-0.43c0.4-0.86,0.75-1.74,1.05-2.63l-0.91-0.1l1.01-0.19
		c0.22-0.61,0.39-1.23,0.53-1.87c-2.49,0.58-4.87,1.57-7.04,2.92L230.35,60l-0.19-1.96c-0.35,0.25-0.67,0.54-0.96,0.86
		c-3.02,3.02-4.5,6.51-3.3,7.71s4.69-0.24,7.71-3.31c0.95-0.99,1.74-2.12,2.35-3.35L234.28,59.81z"/>
	<path id="Path_23" class="st0" d="M235,76.43c-4.5,0.29-9.44,0-14.7,0V64.41c4.88,0.67,9.83,0.67,14.7,0V76.43z"/>
	<path id="Path_24" class="st0" d="M232.22,112.02c-3.98,0.24-8.33,0-12.98,0v-10.59c4.3,0.62,8.68,0.62,12.98,0V112.02z"/>
	<rect id="Rectangle_26" x="80.38" y="40.46" class="st0" width="174.6" height="4.89"/>
	<rect id="Rectangle_27" x="80.38" y="75.09" class="st0" width="174.6" height="4.89"/>
	<rect id="Rectangle_28" x="80.38" y="109.72" class="st0" width="174.6" height="4.89"/>
	<circle id="Ellipse_1" class="st0" cx="225.75" cy="95.54" r="9.77"/>
	<circle id="Ellipse_2" class="st1" cx="225.75" cy="95.54" r="7.81"/>
	<circle id="Ellipse_3" class="st0" cx="225.75" cy="95.54" r="1.96"/>
	<rect id="Rectangle_29" x="224.75" y="95.07" class="st0" width="7.81" height="0.96"/>
	<rect id="Rectangle_30" x="225.23" y="88.74" class="st0" width="0.96" height="7.81"/>
	<rect id="Rectangle_31" x="162.86" y="51.28" class="st0" width="6.47" height="25.53"/>
	<rect id="Rectangle_32" x="162.86" y="55.31" class="st2" width="6.47" height="2.97"/>
	<rect id="Rectangle_33" x="162.86" y="68.24" class="st2" width="6.47" height="2.97"/>
	<rect id="Rectangle_34" x="152.94" y="51.28" class="st0" width="6.47" height="25.53"/>
	<rect id="Rectangle_35" x="152.94" y="55.31" class="st2" width="6.47" height="2.97"/>
	<rect id="Rectangle_36" x="152.94" y="68.24" class="st2" width="6.47" height="2.97"/>
	
		<rect id="Rectangle_37" x="174.45" y="51.28" transform="matrix(0.8962 -0.4437 0.4437 0.8962 -9.9672 85.486)" class="st0" width="6.47" height="25.53"/>
	
		<rect id="Rectangle_38" x="171.2" y="56.08" transform="matrix(0.8962 -0.4437 0.4437 0.8962 -7.4307 83.3733)" class="st2" width="6.47" height="2.97"/>
	
		<rect id="Rectangle_39" x="176.96" y="67.66" transform="matrix(0.8962 -0.4437 0.4437 0.8962 -11.9715 87.1296)" class="st2" width="6.47" height="2.97"/>
	<rect id="Rectangle_40" x="105.33" y="85.92" class="st0" width="6.47" height="25.53"/>
	<rect id="Rectangle_41" x="105.33" y="89.94" class="st2" width="6.47" height="2.97"/>
	<rect id="Rectangle_42" x="105.33" y="102.87" class="st2" width="6.47" height="2.97"/>
	<rect id="Rectangle_43" x="95.37" y="85.92" class="st0" width="6.47" height="25.53"/>
	<rect id="Rectangle_44" x="95.37" y="89.94" class="st2" width="6.47" height="2.97"/>
	<rect id="Rectangle_45" x="95.37" y="102.87" class="st2" width="6.47" height="2.97"/>
	
		<rect id="Rectangle_46" x="116.87" y="85.92" transform="matrix(0.8962 -0.4437 0.4437 0.8962 -31.3153 63.5372)" class="st0" width="6.47" height="25.53"/>
	
		<rect id="Rectangle_47" x="113.67" y="90.7" transform="matrix(0.8962 -0.4437 0.4437 0.8962 -28.765 61.4415)" class="st2" width="6.47" height="2.97"/>
	
		<rect id="Rectangle_48" x="119.38" y="102.3" transform="matrix(0.8962 -0.4437 0.4437 0.8962 -33.3192 65.1807)" class="st2" width="6.47" height="2.97"/>
	<rect id="Rectangle_49" x="165.78" y="85.92" class="st0" width="6.47" height="25.53"/>
	<rect id="Rectangle_50" x="165.78" y="89.94" class="st2" width="6.47" height="2.97"/>
	<rect id="Rectangle_51" x="165.78" y="102.87" class="st2" width="6.47" height="2.97"/>
	<rect id="Rectangle_52" x="155.87" y="85.92" class="st0" width="6.47" height="25.53"/>
	<rect id="Rectangle_53" x="155.87" y="89.94" class="st2" width="6.47" height="2.97"/>
	<rect id="Rectangle_54" x="155.87" y="102.87" class="st2" width="6.47" height="2.97"/>
	
		<rect id="Rectangle_55" x="177.37" y="85.91" transform="matrix(0.8962 -0.4437 0.4437 0.8962 -25.0307 90.3787)" class="st0" width="6.47" height="25.53"/>
	
		<rect id="Rectangle_56" x="174.17" y="90.69" transform="matrix(0.8962 -0.4437 0.4437 0.8962 -22.4804 88.283)" class="st2" width="6.47" height="2.97"/>
	
		<rect id="Rectangle_57" x="179.88" y="102.29" transform="matrix(0.8962 -0.4437 0.4437 0.8962 -27.0351 92.0224)" class="st2" width="6.47" height="2.97"/>
	<rect id="Rectangle_58" x="215.69" y="16.56" class="st0" width="25.67" height="25.67"/>
	<rect id="Rectangle_59" x="220.82" y="21.73" class="st2" width="15.38" height="15.38"/>
	<path id="Path_25" class="st0" d="M225.27,26.86l3.26,5.65l3.26,5.65h-13.03l3.26-5.65L225.27,26.86z"/>
	<path id="Path_26" class="st0" d="M230.93,27.96l3.3,5.65l3.26,5.65h-13.08l3.26-5.65L230.93,27.96z"/>
	<circle id="Ellipse_4" class="st0" cx="233.23" cy="24.41" r="1.87"/>
	<rect id="Rectangle_60" x="85.93" y="16.56" class="st0" width="25.67" height="25.67"/>
	<rect id="Rectangle_61" x="91.06" y="21.73" class="st2" width="15.38" height="15.38"/>
	<path id="Path_27" class="st0" d="M95.51,26.86l3.26,5.65l3.3,5.65H89l3.26-5.65L95.51,26.86z"/>
	<path id="Path_28" class="st0" d="M101.21,27.96l3.26,5.65l3.26,5.65H94.65l3.3-5.65L101.21,27.96z"/>
	<circle id="Ellipse_5" class="st0" cx="103.51" cy="24.41" r="1.87"/>
	<path id="Path_29" class="st3" d="M34.39,191.49l1.68-2.59c-0.48-1.36-1.06-2.69-1.72-3.98l-1.05,0.86l0.86-1.29
		c-0.81-1.58-1.44-2.59-1.44-2.59c-2.06,3.35-3.56,7-4.45,10.83l2.16,3.3l-2.35-1.92c-0.1,0.65-0.14,1.31-0.14,1.96
		c0,6.56,2.16,11.93,4.79,11.93s4.79-5.32,4.79-11.93c-0.05-2.09-0.42-4.16-1.1-6.13L34.39,191.49z"/>
	<path id="Path_30" class="st3" d="M46.18,197.24l2.97-0.62c0.62-1.31,1.16-2.65,1.63-4.02l-1.39-0.14l1.53-0.33
		c0.32-0.94,0.59-1.9,0.81-2.87c-3.81,0.91-7.45,2.43-10.78,4.5l-0.81,3.83l-0.33-3.02c-0.53,0.39-1.02,0.82-1.49,1.29
		c-4.65,4.65-6.9,9.96-5.03,11.83s7.18-0.38,11.83-5.03c1.43-1.53,2.64-3.26,3.59-5.12L46.18,197.24z"/>
	<path id="Path_31" class="st4" d="M47.23,222.72c-6.95,0.43-14.51-0.05-22.51,0v-18.39c7.47,1.05,15.05,1.05,22.51,0V222.72z"/>
	<rect id="Rectangle_62" x="240.12" y="228.47" class="st0" width="93.64" height="121.47"/>
	<rect id="Rectangle_63" x="44.55" y="234.84" class="st0" width="4.89" height="115.1"/>
	<rect id="Rectangle_64" x="0.14" y="220.18" class="st0" width="333.62" height="9.77"/>
	<rect id="Rectangle_65" x="42.1" y="229.95" class="st0" width="9.77" height="9.77"/>
	<path id="Path_32" class="st4" d="M294.35,235.56l-0.58,2.2h-13.65l-0.81-2.2h-34.78v22.42h84.83v-22.42H294.35z"/>
	<path id="Path_33" class="st4" d="M294.35,263.87l-0.58,2.16h-13.65l-0.81-2.16h-34.78v22.42h84.83v-22.42H294.35z"/>
	<path id="Path_34" class="st4" d="M294.35,292.13l-0.58,2.2h-13.65l-0.81-2.2h-34.78v22.47h84.83v-22.47H294.35z"/>
	<path id="Path_35" class="st4" d="M294.35,320.44l-0.58,2.2h-13.65l-0.81-2.2h-34.78v22.42h84.83v-22.42H294.35z"/>
	<path id="Path_36" class="st0" d="M181.11,218.74h-28.79l0.96-12.69h26.82L181.11,218.74z"/>
	<rect id="Rectangle_66" x="150.89" y="217.26" class="st0" width="32.19" height="2.92"/>
	<path id="Path_37" class="st4" d="M221.82,124.33H111.85c-1.6-0.01-2.91,1.28-2.92,2.88c0,0.01,0,0.03,0,0.04l0,0v67.06h115.82
		v-67.06C224.74,125.64,223.44,124.34,221.82,124.33z"/>
	<path id="Path_38" class="st0" d="M108.92,194.36v10.97c-0.01,1.6,1.28,2.91,2.88,2.92c0.01,0,0.03,0,0.04,0h109.98
		c1.6,0.01,2.91-1.28,2.92-2.88c0-0.01,0-0.03,0-0.04l0,0v-10.97H108.92z"/>
	<rect id="Rectangle_67" x="114.77" y="130.46" class="st1" width="104.37" height="58.53"/>
	<circle id="Ellipse_6" class="st4" cx="166.98" cy="201.16" r="2.92"/>
	<path id="Path_39" class="st4" d="M414.48,349.22c-10.68,0.67-22.27-0.05-34.63,0v-28.31c11.49,1.61,23.14,1.61,34.63,0V349.22z"/>
	<path id="Path_40" class="st4" d="M398.38,323.45h-2.92l1.01-57.19h0.96L398.38,323.45z"/>
	<path id="Path_41" class="st4" d="M411.56,323.84h-2.92l1.01-57.15h0.96L411.56,323.84z"/>
	<path id="Path_42" class="st4" d="M386.7,323.84h-2.92l0.96-57.15h1.01L386.7,323.84z"/>
	<path id="Path_43" class="st0" d="M400.83,229.71l4.74-7.28c-1.39-3.87-3.01-7.66-4.84-11.35l-3.07,2.49l2.4-3.74
		c-2.3-4.55-4.12-7.38-4.12-7.38s-9.48,14.95-12.65,30.75l6.08,9.39l-6.71-5.41c-0.25,1.84-0.38,3.7-0.38,5.56
		c0,18.73,6.13,33.91,13.65,33.91s13.64-15.18,13.64-33.91c-0.13-5.95-1.18-11.85-3.11-17.48L400.83,229.71z"/>
	<path id="Path_44" class="st3" d="M414,230.67l4.74-7.28c-1.39-3.87-3.01-7.66-4.84-11.35l-3.07,2.49l2.4-3.74
		c-2.3-4.55-4.12-7.38-4.12-7.38s-9.48,14.95-12.65,30.75l6.08,9.39l-6.71-5.41c-0.25,1.84-0.38,3.7-0.38,5.56
		c0,18.73,6.13,33.91,13.65,33.91s13.64-15.18,13.64-33.91c-0.13-5.95-1.18-11.85-3.11-17.48L414,230.67z"/>
	<path id="Path_45" class="st3" d="M389.14,230.67l4.74-7.28c-1.39-3.87-3.01-7.66-4.84-11.35l-3.07,2.49l2.4-3.74
		c-2.3-4.55-4.12-7.38-4.12-7.38s-9.48,14.95-12.65,30.75l6.08,9.39l-6.71-5.41c-0.25,1.84-0.38,3.7-0.38,5.56
		c0,18.73,6.13,33.91,13.65,33.91s13.65-15.18,13.65-33.91c-0.13-5.95-1.18-11.85-3.11-17.48L389.14,230.67z"/>
	<rect id="Rectangle_68" x="148.63" y="146.94" class="st5" width="28.17" height="1.63"/>
	<rect id="Rectangle_69" x="148.63" y="152.88" class="st3" width="43.44" height="1.63"/>
	<rect id="Rectangle_70" x="148.63" y="158.39" class="st3" width="35.4" height="1.63"/>
	<rect id="Rectangle_71" x="148.63" y="163.95" class="st5" width="20.69" height="1.63"/>
	<rect id="Rectangle_72" x="148.63" y="169.45" class="st5" width="31.23" height="1.63"/>
	<rect id="Rectangle_73" x="135.8" y="146.37" class="st5" width="3.45" height="3.45"/>
	<rect id="Rectangle_74" x="135.8" y="151.92" class="st3" width="3.45" height="3.45"/>
	<rect id="Rectangle_75" x="135.8" y="157.48" class="st3" width="3.45" height="3.45"/>
	<rect id="Rectangle_76" x="135.8" y="163.04" class="st5" width="3.45" height="3.45"/>
	<rect id="Rectangle_77" x="135.8" y="168.59" class="st5" width="3.45" height="3.45"/>
	<path id="Path_46" class="st3" d="M214.31,143.92h-14.75c-1.01-5.83-1.01-11.79,0-17.63h14.75
		C212.58,132.05,212.58,138.17,214.31,143.92z"/>
	<path id="Path_47" class="st6" d="M106.87,179.18l-6.08-1.48c-8.63,0-15.64-6.98-15.66-15.62c0-1.04,0.09-2.09,0.29-3.11l0,0
		c-0.01-11.28,9.12-20.44,20.41-20.45l0,0c11.28-0.01,20.44,9.12,20.45,20.4l0,0c2.51,8.58-2.42,17.57-11,20.08
		C112.53,179.79,109.63,179.86,106.87,179.18z"/>
	<circle id="Ellipse_7" class="st7" cx="113.48" cy="166.29" r="15.04"/>
	<path id="Path_48" class="st7" d="M103.7,174.15c0,0-4.55,15.66-7.18,17s20.88,3.26,20.88,3.26s-0.67-15.04,0.67-16.33
		S103.7,174.15,103.7,174.15z"/>
	<path id="Path_49" class="st4" d="M127.22,270.81c0,0,29.41-2.63,33.29,7.18s-2.64,67.92-2.64,67.92h-12.41v-47.66
		c0,0-52.93-15.04-52.93-20.26S127.22,270.81,127.22,270.81z"/>
	<path id="Path_50" class="st4" d="M155.96,343.33l6.51,2.63c0,0,7.86-0.67,4.55,5.22c-1.91,3.44-5.27,5.84-9.15,6.51
		c0,0-12.41,4.55-13.08,0s3.26-13.7,3.26-13.7L155.96,343.33z"/>
	<path id="Path_51" class="st4" d="M110.89,270.82c0,0,29.41-2.64,33.29,7.18s-2.63,67.92-2.63,67.92h-12.41v-47.66
		c0,0-37.55-8.72-37.55-13.94c0-2.44-2.54-14.95,1.96-17.58C98.63,263.82,110.89,270.82,110.89,270.82z"/>
	<path id="Path_52" class="st4" d="M139.63,343.33l6.51,2.63c0,0,7.86-0.67,4.55,5.22c-1.91,3.44-5.27,5.84-9.15,6.51
		c0,0-12.41,4.55-13.08,0s3.26-13.7,3.26-13.7L139.63,343.33z"/>
	<path id="Path_53" class="st8" d="M97.14,189.19l19.64,2.16c6.23,0.67,11.31,5.27,12.6,11.4l7.62,36.12c0,0,2.63,35.92-2.63,37.89
		s-12.41-7.86-22.23-6.51s-22.51,4.26-22.51,4.26s-2.01-64.28-2.3-69.55C86.84,194.31,97.14,189.19,97.14,189.19z"/>
	<path id="Path_54" class="st7" d="M143.65,272.68l8.05,4.74c0,0,14.47-2.06,13.99,3.02s-16.24,4.12-16.24,4.12l-9.72-5.99
		L143.65,272.68z"/>
	<circle id="Ellipse_8" class="st6" cx="84.3" cy="144.4" r="9.72"/>
	<path id="Path_55" class="st6" d="M93.26,139.18c-0.01-5.35-4.35-9.68-9.7-9.68c-0.01,0-0.01,0-0.02,0
		c-0.64-0.01-1.29,0.06-1.92,0.19c4.85-2.29,10.64-0.21,12.93,4.65c2.29,4.85,0.21,10.64-4.65,12.93l0,0
		c-0.72,0.33-1.47,0.57-2.25,0.72C91.07,146.39,93.26,142.96,93.26,139.18z"/>
	<path id="Path_56" class="st6" d="M101.6,144.69l13.08-2.4l10.06,6.32c5.04,3.18,7.79,8.99,7.04,14.9l-10.06-2.54l-2.25-5.65
		l-2.68,4.41l-14.04,18.11l-7.9-5.03l-7.05-11.01L101.6,144.69z"/>
	<path id="Path_57" class="st8" d="M112.37,194.75l6.51-3.26c0,0,13.7,1.96,16.33,11.11c2.63,9.15,14.37,72.52,14.37,72.52
		l-11.11,5.22l-15.66-38.56L112.37,194.75z"/>
	<path id="Path_58" class="st9" d="M117.93,220.42l6.56,25.39l11.59,28.5l-0.43,1.01l-13.8-29.03L117.93,220.42z"/>
	<path id="Path_59" class="st4" d="M69.17,360.38l-2.3-0.81l22.32-66.34l3.21,1.15L69.17,360.38z"/>
	<path id="Path_60" class="st4" d="M154.52,360.38l2.3-0.81l-22.32-66.34l-3.26,1.15L154.52,360.38z"/>
	<path id="Path_61" class="st4" d="M107.34,374.08h2.44l0.72-77.55h-3.4L107.34,374.08z"/>
	<path id="Path_62" class="st3" d="M63.52,254.29l6.71,27.02c1.9,7.71,7.91,13.74,15.62,15.66l0,0c18.65,4.66,38.18,4.53,56.76-0.38
		l10.01-2.63c5.83-1.49,10.08-6.51,10.59-12.5c0.14-2.12-0.23-4.24-1.1-6.18c-0.05-0.1-0.1-0.14-0.1-0.24
		c-2.63-5.47-8.11-9-14.18-9.15l-10.59-0.34l-38.51-17.05c0,0-13.27-6.75-24.14-7.47c-5.89-0.39-10.97,4.07-11.36,9.96
		C63.14,252.09,63.24,253.21,63.52,254.29z"/>
	<rect id="Rectangle_78" x="260.38" y="169.21" class="st0" width="38.03" height="51.68"/>
	<rect id="Rectangle_79" x="264.74" y="175.2" class="st1" width="29.27" height="39.76"/>
	<rect id="Rectangle_80" x="276.29" y="185.6" class="st4" width="14.18" height="1.63"/>
	<rect id="Rectangle_81" x="268.34" y="184.69" class="st4" width="3.45" height="3.45"/>
	<rect id="Rectangle_82" x="276.29" y="192.4" class="st4" width="14.18" height="1.63"/>
	<rect id="Rectangle_83" x="268.34" y="191.54" class="st4" width="3.45" height="3.45"/>
	<rect id="Rectangle_84" x="276.29" y="199.25" class="st4" width="14.18" height="1.63"/>
	<rect id="Rectangle_85" x="268.34" y="198.34" class="st4" width="3.45" height="3.45"/>
	<path id="Path_63" class="st4" d="M279.4,170.7L279.4,170.7c0.82,0,1.48,0.67,1.48,1.48l0,0c0,0.82-0.67,1.48-1.48,1.48l0,0
		c-0.82,0-1.48-0.67-1.48-1.48l0,0c-0.01-0.81,0.63-1.47,1.44-1.48C279.37,170.7,279.39,170.7,279.4,170.7z"/>
</g>
</svg>
