<svg id="Layer_1" data-name="Layer 1" xmlns="http://www.w3.org/2000/svg" xmlns:xlink="http://www.w3.org/1999/xlink" viewBox="0 0 179.8 88.87"><defs><style>.cls-1{fill:#0e0e0e;}.cls-2{fill:url(#linear-gradient);}.cls-3{fill:url(#linear-gradient-2);}.cls-4{fill:#2f3080;}.cls-5{fill:#354099;}.cls-6{fill:#41469d;}.cls-7{fill:#595da9;}.cls-8{fill:url(#linear-gradient-3);}.cls-9{fill:url(#linear-gradient-4);}</style><linearGradient id="linear-gradient" x1="-588.27" y1="419.86" x2="-587.54" y2="419.86" gradientTransform="matrix(82.2, 0, 0, -29.71, 48383.19, 12509.91)" gradientUnits="userSpaceOnUse"><stop offset="0.12" stop-color="#99d2a8"/><stop offset="0.25" stop-color="#aad297"/><stop offset="0.53" stop-color="#d2d569"/><stop offset="0.82" stop-color="#fbd900"/></linearGradient><linearGradient id="linear-gradient-2" x1="-587.6" y1="425.74" x2="-587.21" y2="426.18" gradientTransform="matrix(73.71, 0, 0, -107.18, 43352.09, 45702.84)" gradientUnits="userSpaceOnUse"><stop offset="0.26" stop-color="#2a2f73"/><stop offset="0.38" stop-color="#313779"/><stop offset="0.6" stop-color="#454d8b"/><stop offset="0.89" stop-color="#6672ae"/><stop offset="1" stop-color="#7484c1"/></linearGradient><linearGradient id="linear-gradient-3" x1="-586.55" y1="425.24" x2="-586.19" y2="424.77" gradientTransform="matrix(55.94, 0, 0, -75.15, 32865.25, 31989.73)" gradientUnits="userSpaceOnUse"><stop offset="0" stop-color="#99d2a8"/><stop offset="0.13" stop-color="#a0d1a1"/><stop offset="0.33" stop-color="#b2d290"/><stop offset="0.58" stop-color="#ccd472"/><stop offset="0.87" stop-color="#edd739"/><stop offset="1" stop-color="#fcd900"/></linearGradient><linearGradient id="linear-gradient-4" x1="-586.34" y1="424.83" x2="-585.98" y2="425.3" gradientTransform="matrix(55.93, 0, 0, -75.15, 32838.03, 31991.48)" gradientUnits="userSpaceOnUse"><stop offset="0" stop-color="#00b4ed"/><stop offset="0.16" stop-color="#00b6e6"/><stop offset="0.41" stop-color="#2ebcd7"/><stop offset="0.74" stop-color="#71c7c0"/><stop offset="1" stop-color="#99d2a8"/></linearGradient></defs><g id="VenioSystems-Logo-01"><path id="Path_1" data-name="Path 1" class="cls-1" d="M108.82,41.65a8.36,8.36,0,0,1,.85-.14,7.86,7.86,0,0,1,.83,0,9.71,9.71,0,0,1,1.21.09,6.33,6.33,0,0,1,1.14.28L113,42c-.41,1.38-.87,2.9-1.35,4.57l-1.5,5c-.5,1.68-1,3.25-1.45,4.71s-.86,2.73-1.21,3.76c-.51.08-1.06.13-1.65.17s-1.18,0-1.74,0a4,4,0,0,1-2.07-.44,3.27,3.27,0,0,1-1.18-1.93L96,42a8.17,8.17,0,0,1,1.36-.49,4.67,4.67,0,0,1,1.23-.16,2.78,2.78,0,0,1,1.66.45,2.61,2.61,0,0,1,.93,1.59l2.16,7.69c.17.55.33,1.15.49,1.8l.42,1.82c.12.58.22,1.05.3,1.42a.42.42,0,0,0,.12.26.69.69,0,0,0,.25,0Z"/><path id="Path_2" data-name="Path 2" class="cls-1" d="M128.67,45a6.75,6.75,0,0,0-2.54-2.83,7.51,7.51,0,0,0-4.11-1,7.33,7.33,0,0,0-4.49,1.29,7.61,7.61,0,0,0-2.61,3.49,14,14,0,0,0-.84,5,17.39,17.39,0,0,0,.37,3.6,8.88,8.88,0,0,0,1.26,3.09,6.14,6.14,0,0,0,2.42,2.16,8.19,8.19,0,0,0,3.83.79,13.4,13.4,0,0,0,3.83-.56A10.64,10.64,0,0,0,129,58.46a5.53,5.53,0,0,0-.45-1.5,4.11,4.11,0,0,0-.88-1.33,16.18,16.18,0,0,1-2.43.92,9.32,9.32,0,0,1-2.62.37,3.6,3.6,0,0,1-2.47-.75,3.8,3.8,0,0,1-1.17-2,11.24,11.24,0,0,1-.26-1.82h10.42a11.66,11.66,0,0,0,.26-1.55,14.22,14.22,0,0,0,.09-1.73A9,9,0,0,0,128.67,45Zm-3.46,4.06h-6.47a7.38,7.38,0,0,1,.76-3.2A2.62,2.62,0,0,1,122,44.46a2.93,2.93,0,0,1,1.86.55,3.18,3.18,0,0,1,1,1.51,6.35,6.35,0,0,1,.32,2.07v.48Z"/><path id="Path_3" data-name="Path 3" class="cls-1" d="M149.07,57.76a11.31,11.31,0,0,1-.16-1.92V47.6a9.13,9.13,0,0,0-.53-3.23,4.74,4.74,0,0,0-1.64-2.25,4.62,4.62,0,0,0-2.86-.83,7,7,0,0,0-3.69,1,13,13,0,0,0-1.91,1.37,3.2,3.2,0,0,0-.53-1.36,2.25,2.25,0,0,0-2-.87H134l-.24.24V60.05a10.49,10.49,0,0,0,1.11.13q.6,0,1.2,0c.39,0,.8,0,1.2,0a9.65,9.65,0,0,0,1.08-.13V47.33c.11-.11.22-.22.34-.32a6.64,6.64,0,0,1,1.83-1.17,4.9,4.9,0,0,1,1.77-.39,1.67,1.67,0,0,1,1.6.74,5.22,5.22,0,0,1,.42,2.4v8.84a3.6,3.6,0,0,0,.54,2.15,2.3,2.3,0,0,0,1.93.74,4.55,4.55,0,0,0,1.59-.28,4.3,4.3,0,0,0,1.26-.69A4.55,4.55,0,0,1,149.07,57.76Z"/><path id="Path_4" data-name="Path 4" class="cls-1" d="M159.31,60a8.39,8.39,0,0,1-1.11.13c-.4,0-.79,0-1.2,0l-1.21,0a10.37,10.37,0,0,1-1.12-.13V47a2.65,2.65,0,0,0-.36-1.5,1.44,1.44,0,0,0-1.3-.53h-.46a6,6,0,0,1-.21-1.58,5.78,5.78,0,0,1,0-.83,5,5,0,0,1,.16-.86c.49,0,1-.1,1.47-.12s.9-.05,1.22-.05h.63a3.2,3.2,0,0,1,2.49,1,3.91,3.91,0,0,1,.93,2.74V60Zm-5.75-23.46a4.75,4.75,0,0,1,.37-1.86,3.89,3.89,0,0,1,1-.36,6.1,6.1,0,0,1,1.28-.12,6.85,6.85,0,0,1,1.28.12,3.14,3.14,0,0,1,1,.36,5.09,5.09,0,0,1,.27.92,4.92,4.92,0,0,1,.1.94,4.58,4.58,0,0,1-.37,1.86,3.43,3.43,0,0,1-1,.35,5.7,5.7,0,0,1-1.3.15,7,7,0,0,1-1.29-.12,3.18,3.18,0,0,1-1-.37,4.8,4.8,0,0,1-.37-1.87Z"/><path id="Path_5" data-name="Path 5" class="cls-1" d="M179.8,50.83a13.24,13.24,0,0,1-.93,5.09,7.5,7.5,0,0,1-2.76,3.41,8.13,8.13,0,0,1-4.55,1.21A8,8,0,0,1,167,59.32a7.51,7.51,0,0,1-2.73-3.42,14.42,14.42,0,0,1,0-10.15A7.6,7.6,0,0,1,167,42.34a7.89,7.89,0,0,1,4.53-1.22,8,8,0,0,1,4.57,1.23,7.55,7.55,0,0,1,2.76,3.43A13.44,13.44,0,0,1,179.8,50.83Zm-11.72,0a15.83,15.83,0,0,0,.28,3.08,4.69,4.69,0,0,0,1,2.3,3.16,3.16,0,0,0,4.34,0,5,5,0,0,0,1-2.3,16.39,16.39,0,0,0,0-6.14,5,5,0,0,0-1-2.3,3.12,3.12,0,0,0-4.34,0,4.83,4.83,0,0,0-1,2.3,16.59,16.59,0,0,0-.28,3.06Z"/><path id="Path_6" data-name="Path 6" class="cls-1" d="M98,79.87a1.56,1.56,0,0,1,.22-.67,2,2,0,0,1,.46-.57,15.11,15.11,0,0,0,1.68.79,4.83,4.83,0,0,0,1.84.36,3.13,3.13,0,0,0,2-.57,1.85,1.85,0,0,0,.78-1.44,1.82,1.82,0,0,0-.49-1.19,3.12,3.12,0,0,0-1.36-.87l-1.48-.55A8.42,8.42,0,0,1,100,74.4a3.89,3.89,0,0,1-1.16-1.09,2.74,2.74,0,0,1-.44-1.55A2.83,2.83,0,0,1,99,70a3.46,3.46,0,0,1,1.49-1.15,5.09,5.09,0,0,1,2-.41,9.69,9.69,0,0,1,1.93.23,9,9,0,0,1,1.76.57,2,2,0,0,1-.24.93,1.68,1.68,0,0,1-.3.4,10.41,10.41,0,0,0-1.42-.5,6.33,6.33,0,0,0-1.79-.23,2.61,2.61,0,0,0-1.66.5,1.59,1.59,0,0,0-.65,1.36,1.38,1.38,0,0,0,.49,1.08,4.55,4.55,0,0,0,1.43.79l1.52.56a6,6,0,0,1,2.21,1.36,3,3,0,0,1,.83,2.2,3,3,0,0,1-1.28,2.54,5.41,5.41,0,0,1-3.24.91,6.92,6.92,0,0,1-2.34-.38A9.13,9.13,0,0,1,98,79.87Z"/><path id="Path_7" data-name="Path 7" class="cls-1" d="M115.05,80.39a22.46,22.46,0,0,1-1.24,3.29,4.82,4.82,0,0,1-1.53,1.9,4.12,4.12,0,0,1-2.37.63,6.35,6.35,0,0,1-1.06-.11,5.48,5.48,0,0,1-.89-.21,1.64,1.64,0,0,1,.11-.66,1.61,1.61,0,0,1,.29-.55,3.25,3.25,0,0,0,.7.17,5.1,5.1,0,0,0,.87.07,2.44,2.44,0,0,0,1.57-.46,3.5,3.5,0,0,0,1-1.31,14.49,14.49,0,0,0,.75-2l.07-.24a1.66,1.66,0,0,1-.92-.28,1.83,1.83,0,0,1-.55-.91l-3.48-10.91a3.71,3.71,0,0,1,.55-.22,1.7,1.7,0,0,1,.44-.08,1,1,0,0,1,.52.17,1.12,1.12,0,0,1,.38.63l2,6.31c.14.45.28.92.42,1.39s.27.92.4,1.35.24.82.35,1.15a.25.25,0,0,0,.26.18l3.08-11,.4-.06.4,0a2.28,2.28,0,0,1,.45,0,2.22,2.22,0,0,1,.37.09l0,.07Z"/><path id="Path_8" data-name="Path 8" class="cls-1" d="M119.81,79.87a1.43,1.43,0,0,1,.21-.67,2,2,0,0,1,.47-.57,15,15,0,0,0,1.67.79,4.88,4.88,0,0,0,1.85.36,3.17,3.17,0,0,0,1.95-.57,1.84,1.84,0,0,0,.77-1.44,1.81,1.81,0,0,0-.48-1.19,3.16,3.16,0,0,0-1.37-.87l-1.47-.55a8.13,8.13,0,0,1-1.57-.76,3.93,3.93,0,0,1-1.17-1.09,2.74,2.74,0,0,1-.44-1.55A3,3,0,0,1,120.8,70a3.52,3.52,0,0,1,1.49-1.15,5.13,5.13,0,0,1,2-.41,9.6,9.6,0,0,1,1.93.23,9.14,9.14,0,0,1,1.77.57,3.55,3.55,0,0,1-.06.47,2.34,2.34,0,0,1-.19.46,1.68,1.68,0,0,1-.3.4,10,10,0,0,0-1.42-.5,6.33,6.33,0,0,0-1.79-.23,2.61,2.61,0,0,0-1.66.5,1.64,1.64,0,0,0-.64,1.36,1.37,1.37,0,0,0,.48,1.08,4.66,4.66,0,0,0,1.43.79l1.53.56a6,6,0,0,1,2.2,1.36,3,3,0,0,1,.83,2.2,3,3,0,0,1-1.28,2.54,5.38,5.38,0,0,1-3.23.91,6.88,6.88,0,0,1-2.34-.38A8.86,8.86,0,0,1,119.81,79.87Z"/><path id="Path_9" data-name="Path 9" class="cls-1" d="M137,70a3.7,3.7,0,0,0,.07-.66,4.62,4.62,0,0,0-.07-.65l-3.14,0V65l-.15-.15h-.61c-.4,0-.64.1-.74.3a1.86,1.86,0,0,0-.15.87V68.7l-1.74,0a4.62,4.62,0,0,0-.07.65,3.7,3.7,0,0,0,.07.66l1.74,0v9a1.82,1.82,0,0,0,.58,1.46,2.4,2.4,0,0,0,1.59.5c.48,0,.92,0,1.31,0s.77-.06,1.17-.11a1,1,0,0,0,0-.17v-.17a2.6,2.6,0,0,0-.14-.92h-1.92a.89.89,0,0,1-.75-.29,1.26,1.26,0,0,1-.2-.73V69.93Z"/><path id="Path_10" data-name="Path 10" class="cls-1" d="M148.06,71a4.36,4.36,0,0,0-1.58-1.92,4.64,4.64,0,0,0-2.63-.71,4.28,4.28,0,0,0-2.66.82,5.19,5.19,0,0,0-1.67,2.25,8.39,8.39,0,0,0-.58,3.25,12.36,12.36,0,0,0,.24,2.43,6.55,6.55,0,0,0,.81,2,4.11,4.11,0,0,0,1.49,1.41,4.7,4.7,0,0,0,2.3.51,7.46,7.46,0,0,0,2.43-.4,7.65,7.65,0,0,0,2-1,1.54,1.54,0,0,0-.22-.62,2,2,0,0,0-.41-.58,10.07,10.07,0,0,1-1.71.77,5.71,5.71,0,0,1-1.92.3,2.82,2.82,0,0,1-1.93-.6,3.27,3.27,0,0,1-1-1.67,7.94,7.94,0,0,1-.3-2h7.76c0-.3.06-.56.08-.79s0-.48,0-.78A6.6,6.6,0,0,0,148.06,71ZM146.87,74h-6.13a5.92,5.92,0,0,1,.8-3,2.55,2.55,0,0,1,2.31-1.26,2.65,2.65,0,0,1,1.75.53,3,3,0,0,1,1,1.4,6.16,6.16,0,0,1,.3,2Z"/><path id="Path_11" data-name="Path 11" class="cls-1" d="M167.56,79.65c0-.36,0-.74,0-1.13V72.28a5.64,5.64,0,0,0-.33-1.91,3,3,0,0,0-1-1.38,2.76,2.76,0,0,0-1.75-.52,4.3,4.3,0,0,0-1.55.28,5.87,5.87,0,0,0-1.46.78,10.35,10.35,0,0,0-1,.84,3,3,0,0,0-1-1.37,2.77,2.77,0,0,0-1.76-.52,4.32,4.32,0,0,0-1.58.31,5.19,5.19,0,0,0-1.49.91q-.32.28-.6.6v-.51a1.78,1.78,0,0,0-.15-.85c-.1-.2-.34-.3-.73-.3h-.64l-.15.17v12a2.5,2.5,0,0,0,.38.06l.47,0,.45,0a2.2,2.2,0,0,0,.37-.06V72a4.37,4.37,0,0,1,.49-.56,5.2,5.2,0,0,1,1.44-1.07,3.4,3.4,0,0,1,1.43-.36,1.39,1.39,0,0,1,1.34.66,4.7,4.7,0,0,1,.38,2.19v8a2.5,2.5,0,0,0,.38.06l.48,0,.45,0,.37-.06V72.28c0-.1,0-.2,0-.3a6.4,6.4,0,0,1,.53-.62,5.26,5.26,0,0,1,1.46-1,3.34,3.34,0,0,1,1.42-.35,1.4,1.4,0,0,1,1.33.66,4.6,4.6,0,0,1,.38,2.17v7a1.34,1.34,0,0,0,.21.83.77.77,0,0,0,.66.28,1.86,1.86,0,0,0,.58-.1,1.77,1.77,0,0,0,.49-.26A3,3,0,0,1,167.56,79.65Z"/><path id="Path_12" data-name="Path 12" class="cls-1" d="M170.54,79.87a1.44,1.44,0,0,1,.22-.67,2,2,0,0,1,.46-.57,15,15,0,0,0,1.67.79,4.91,4.91,0,0,0,1.85.36,3.15,3.15,0,0,0,1.95-.57,1.81,1.81,0,0,0,.77-1.44,1.76,1.76,0,0,0-.48-1.19,3.12,3.12,0,0,0-1.36-.87l-1.48-.55a8.42,8.42,0,0,1-1.57-.76,3.89,3.89,0,0,1-1.16-1.09,2.74,2.74,0,0,1-.44-1.55,2.89,2.89,0,0,1,.56-1.79A3.58,3.58,0,0,1,173,68.82a5,5,0,0,1,2-.41,9.51,9.51,0,0,1,1.92.23,9.14,9.14,0,0,1,1.77.57,1.84,1.84,0,0,1-.06.47,2.32,2.32,0,0,1-.18.46,1.68,1.68,0,0,1-.3.4,10.41,10.41,0,0,0-1.42-.5,6.42,6.42,0,0,0-1.79-.23,2.59,2.59,0,0,0-1.66.5,1.59,1.59,0,0,0-.65,1.36,1.4,1.4,0,0,0,.48,1.08,4.71,4.71,0,0,0,1.44.79l1.52.56a5.9,5.9,0,0,1,2.2,1.36,3,3,0,0,1,.83,2.2,2.93,2.93,0,0,1-1.28,2.54,5.36,5.36,0,0,1-3.23.91,6.88,6.88,0,0,1-2.34-.38A9.13,9.13,0,0,1,170.54,79.87Z"/><path id="Path_13" data-name="Path 13" class="cls-2" d="M76.61,47.53H38.38A10.85,10.85,0,0,1,27.57,36.72h0A10.85,10.85,0,0,1,38.38,25.9H76.59A10.85,10.85,0,0,1,87.41,36.72h0A10.83,10.83,0,0,1,76.61,47.53Z"/><path id="Path_14" data-name="Path 14" class="cls-3" d="M73,61.69,48.33,18.06c-1.19-2.09-3.21-5.65-4.14-7.22l-7.73,4.4-7.83,4.47L33,27.32l4.4,7.61L21.75,43.84l20.48,36a17.65,17.65,0,0,0,24,6.79l.26-.15h0A18.4,18.4,0,0,0,73,61.69Z"/><g id="Group_9" data-name="Group 9"><path id="Path_15" data-name="Path 15" class="cls-4" d="M33.87,47l4.35,7.63-7.73,4.43-4.4-7.62Z"/><rect id="Rectangle_13" data-name="Rectangle 13" class="cls-5" x="1.59" y="2.88" width="8.97" height="8.78" transform="translate(-2.8 3.96) rotate(-29.68)"/><rect id="Rectangle_14" data-name="Rectangle 14" class="cls-6" x="23.32" y="41.03" width="8.97" height="8.78" transform="translate(-18.84 19.72) rotate(-29.68)"/><rect id="Rectangle_15" data-name="Rectangle 15" class="cls-4" x="31.11" y="36.59" width="8.97" height="8.78" transform="translate(-15.62 23) rotate(-29.68)"/><rect id="Rectangle_16" data-name="Rectangle 16" class="cls-5" x="18.07" y="13.7" width="8.97" height="8.78" transform="translate(-6 13.54) rotate(-29.68)"/><rect id="Rectangle_17" data-name="Rectangle 17" class="cls-7" x="26.76" y="28.95" width="8.97" height="8.78" transform="translate(-12.41 19.84) rotate(-29.68)"/><rect id="Rectangle_18" data-name="Rectangle 18" class="cls-4" x="34.55" y="24.53" width="8.97" height="8.78" transform="matrix(0.87, -0.5, 0.5, 0.87, -9.2, 23.12)"/><rect id="Rectangle_19" data-name="Rectangle 19" class="cls-4" x="21.51" y="1.64" width="8.97" height="8.78" transform="translate(0.42 13.66) rotate(-29.68)"/><rect id="Rectangle_20" data-name="Rectangle 20" class="cls-6" x="30.2" y="16.89" width="8.97" height="8.78" transform="translate(-5.99 19.96) rotate(-29.68)"/><rect id="Rectangle_21" data-name="Rectangle 21" class="cls-7" x="14.63" y="25.76" width="8.97" height="8.78" transform="translate(-12.42 13.42) rotate(-29.68)"/><rect id="Rectangle_22" data-name="Rectangle 22" class="cls-4" x="38" y="12.46" width="8.97" height="8.78" transform="translate(-2.77 23.24) rotate(-29.68)"/><rect id="Rectangle_23" data-name="Rectangle 23" class="cls-7" x="33.65" y="4.82" width="8.97" height="8.78" transform="translate(0.44 20.09) rotate(-29.68)"/></g><path id="Path_16" data-name="Path 16" class="cls-8" d="M48.18,64.39,67.29,31.31a10.85,10.85,0,0,1,14.78-4h0a10.85,10.85,0,0,1,4,14.77L66.91,75.22a10.85,10.85,0,0,1-14.77,4h0A10.86,10.86,0,0,1,48.18,64.39Z"/><path id="Path_17" data-name="Path 17" class="cls-9" d="M48,75.22l-19.1-33.1a10.84,10.84,0,0,1,4-14.77h0a10.84,10.84,0,0,1,14.77,4l19.11,33.1a10.84,10.84,0,0,1-4,14.77h0A10.85,10.85,0,0,1,48,75.22Z"/></g></svg>