<?xml version="1.0" encoding="utf-8"?>
<!-- Generator: Adobe Illustrator 26.2.0, SVG Export Plug-In . SVG Version: 6.00 Build 0)  -->
<svg version="1.1" id="Layer_1" xmlns="http://www.w3.org/2000/svg" xmlns:xlink="http://www.w3.org/1999/xlink" x="0px" y="0px"
	 viewBox="0 0 25 25" style="enable-background:new 0 0 25 25;" xml:space="preserve">
<style type="text/css">
	.st0{fill:#BFBFBF;}
	.st1{fill:#928F8F;}
</style>
<g>
	<path id="Icon_simple-hackhands" class="st0" d="M4.1,17.6h5.8c0.4,0,0.8-0.4,0.8-0.8c0-0.4-0.4-0.8-0.8-0.8H4.1
		c-0.4,0-0.8,0.4-0.8,0.8c0,0,0,0,0,0C3.3,17.3,3.7,17.6,4.1,17.6C4.1,17.6,4.1,17.6,4.1,17.6L4.1,17.6z M14.4,14.1
		c0-0.5-0.4-0.8-0.8-0.8c0,0,0,0,0,0H5.3c-0.5,0-0.8,0.4-0.8,0.8c0,0.5,0.4,0.8,0.8,0.8h8.3C14,14.9,14.4,14.6,14.4,14.1
		C14.4,14.1,14.4,14.1,14.4,14.1L14.4,14.1z M16.1,11.4c0-0.4-0.4-0.8-0.8-0.8h-10c-0.4,0-0.8,0.4-0.8,0.8c0,0.4,0.4,0.8,0.8,0.8h10
		C15.7,12.2,16.1,11.9,16.1,11.4C16.1,11.4,16.1,11.4,16.1,11.4z M4.4,8.7c0,0.4,0.4,0.8,0.8,0.8c0,0,0,0,0,0h8.6
		c0.4,0,0.8-0.4,0.8-0.8c0-0.4-0.4-0.8-0.8-0.8l0,0H5.2C4.8,7.9,4.4,8.2,4.4,8.7C4.4,8.7,4.4,8.7,4.4,8.7z M6.5,5.2H4.1
		C3.7,5.2,3.3,5.5,3.3,6c0,0.4,0.3,0.8,0.8,0.8c0,0,0,0,0,0h2.4C7,6.8,7.4,6.4,7.4,6c0,0,0,0,0,0C7.3,5.5,7,5.2,6.5,5.2L6.5,5.2z
		 M20.1,20.5c0-0.5-0.4-0.9-0.8-0.9c0,0,0,0,0,0H3.6c-0.9,0-1.6-0.7-1.6-1.6V4.8C2,4,2.7,3.3,3.6,3.2h13.2c0.9,0,1.6,0.7,1.6,1.6
		c0,0,0,0,0,0v10.7c0,0.5,0.4,0.8,0.8,0.9c0.5,0,0.8-0.4,0.9-0.8c0,0,0,0,0,0V4.8c0-1.8-1.5-3.2-3.2-3.2H3.6C1.8,1.6,0.3,3,0.3,4.8
		v13.2c0,1.8,1.5,3.2,3.2,3.2h14.3l2.2,2.1V20.5z"/>
	<path id="Icon_metro-pencil" class="st1" d="M23.4,10.9c0.7,0,1.3,0.6,1.3,1.3c0,0.3-0.1,0.5-0.3,0.8l-0.5,0.5l-1.8-1.8l0.5-0.5
		C22.9,11,23.1,10.9,23.4,10.9z M17.1,16.7L16.6,19l2.3-0.5l4.7-4.7L21.8,12L17.1,16.7z M22.2,13.8l-3.5,3.5l-0.4-0.4l3.5-3.5
		L22.2,13.8L22.2,13.8z"/>
</g>
</svg>
