<?xml version="1.0" encoding="utf-8"?>
<!-- Generator: Adobe Illustrator 26.2.0, SVG Export Plug-In . SVG Version: 6.00 Build 0)  -->
<svg version="1.1" id="Layer_1" xmlns="http://www.w3.org/2000/svg" xmlns:xlink="http://www.w3.org/1999/xlink" x="0px" y="0px"
	 viewBox="0 0 25 25" style="enable-background:new 0 0 25 25;" xml:space="preserve">
<style type="text/css">
	.st0{fill:#BFBFBF;}
</style>
<g id="Group_441" transform="translate(-1127.154 -219.67)">
	<path id="Icon_metro-insert-template_00000020392876967715143760000003654819979528135847_" class="st0" d="M1135.1,225.4h2.6v1.3
		h-2.6V225.4z M1139,225.4h2.6v1.3h-2.6V225.4z M1145.6,225.4v5.3h-3.9v-1.3h2.6v-2.6h-1.3v-1.3H1145.6z M1133.7,229.4h2.6v1.3h-2.6
		V229.4z M1137.7,229.4h2.6v1.3h-2.6V229.4z M1131.1,226.7v2.6h1.3v1.3h-2.6v-5.3h3.9v1.3H1131.1z M1135.1,233.3h2.6v1.3h-2.6V233.3
		z M1139,233.3h2.6v1.3h-2.6V233.3z M1145.6,233.3v5.3h-3.9v-1.3h2.6v-2.6h-1.3v-1.3H1145.6z M1133.7,237.2h2.6v1.3h-2.6V237.2z
		 M1137.7,237.2h2.6v1.3h-2.6V237.2z M1131.1,234.6v2.6h1.3v1.3h-2.6v-5.3h3.9v1.3L1131.1,234.6z M1146.9,222.8h-18.4v18.4h18.4
		V222.8z M1148.2,221.5v21.1h-21.1v-21.1H1148.2z"/>
	<path id="Icon_material-add-circle" d="M1145.9,230.1c-3.4,0-6.2,2.8-6.2,6.2c0,3.4,2.8,6.2,6.2,6.2c3.4,0,6.2-2.8,6.2-6.2
		c0,0,0,0,0,0C1152.1,232.8,1149.3,230.1,1145.9,230.1z M1149,236.9h-2.5v2.5h-1.2v-2.5h-2.5v-1.2h2.5v-2.5h1.2v2.5h2.5L1149,236.9z
		"/>
</g>
</svg>
