<?xml version="1.0" encoding="utf-8"?>
<!-- Generator: Adobe Illustrator 25.4.1, SVG Export Plug-In . SVG Version: 6.00 Build 0)  -->
<svg version="1.1" id="Layer_1" xmlns="http://www.w3.org/2000/svg" xmlns:xlink="http://www.w3.org/1999/xlink" x="0px" y="0px"
	 viewBox="0 0 24 24" style="enable-background:new 0 0 24 24;" xml:space="preserve">
<style type="text/css">
	.st0{fill:#777777;}
</style>
<path id="Icon_material-multiline-chart" class="st0" d="M23,6.69l-1.55-1.55l-3.13,3.53c-2.25-2.6-5.51-4.09-8.94-4.09
	C6.27,4.61,3.29,5.79,1,7.88l1.56,1.56c1.87-1.69,4.29-2.63,6.81-2.66c2.89,0.02,5.62,1.32,7.45,3.56l-3.17,3.56l-4.4-4.4L1,17.77
	l1.65,1.65l6.6-6.61l4.4,4.4l4.45-5c0.85,1.55,1.39,3.25,1.58,5h2.21c-0.22-2.39-0.98-4.71-2.24-6.75L23,6.69z"/>
</svg>
