<?xml version="1.0" encoding="utf-8"?>
<!-- Generator: Adobe Illustrator 26.2.0, SVG Export Plug-In . SVG Version: 6.00 Build 0)  -->
<svg version="1.1" id="Layer_1" xmlns="http://www.w3.org/2000/svg" xmlns:xlink="http://www.w3.org/1999/xlink" x="0px" y="0px"
	 viewBox="0 0 75 75" style="enable-background:new 0 0 75 75;" xml:space="preserve">
<style type="text/css">
	.st0{fill:url(#Path_13_00000140716598064046725860000013228279853022578870_);}
	.st1{fill:url(#Path_14_00000060751027096376387180000015901539289358298276_);}
	.st2{fill:#2F3080;}
	.st3{fill:#354099;}
	.st4{fill:#41469D;}
	.st5{fill:#595DA9;}
	.st6{fill:url(#Path_16_00000181060078681814191010000014183181986026164397_);}
	.st7{fill:url(#Path_17_00000084499484669183579950000011469778427012660609_);}
</style>
<g>
	
		<linearGradient id="Path_13_00000005952172691138525240000011971947269219113128_" gradientUnits="userSpaceOnUse" x1="-640.8095" y1="413.1261" x2="-640.2161" y2="413.1261" gradientTransform="matrix(82.2 0 0 -29.708 52698.875 12304.3535)">
		<stop  offset="0.123" style="stop-color:#99D2A8"/>
		<stop  offset="0.254" style="stop-color:#AAD297"/>
		<stop  offset="0.526" style="stop-color:#D2D569"/>
		<stop  offset="0.825" style="stop-color:#FBD900"/>
	</linearGradient>
	
		<path id="Path_13_00000105428677377552201650000015071586299766651573_" style="fill:url(#Path_13_00000005952172691138525240000011971947269219113128_);" d="
		M64.3,40H33.1c-4.9,0-8.8-4-8.8-8.8l0,0c0-4.9,4-8.8,8.8-8.8h31.1c4.9,0,8.8,4,8.8,8.8l0,0C73.1,36.1,69.2,40,64.3,40z"/>
	
		<linearGradient id="Path_14_00000158741112381703671500000000180024223619192479_" gradientUnits="userSpaceOnUse" x1="-640.1008" y1="419.0898" x2="-639.7851" y2="419.4488" gradientTransform="matrix(73.7129 0 0 -107.1843 47216.6914 44978.6484)">
		<stop  offset="0.263" style="stop-color:#2A2F73"/>
		<stop  offset="0.379" style="stop-color:#313779"/>
		<stop  offset="0.598" style="stop-color:#454D8B"/>
		<stop  offset="0.894" style="stop-color:#6672AE"/>
		<stop  offset="1" style="stop-color:#7484C1"/>
	</linearGradient>
	
		<path id="Path_14_00000018231104858724579200000017748842348813938051_" style="fill:url(#Path_14_00000158741112381703671500000000180024223619192479_);" d="
		M61.4,51.6L41.2,16c-1-1.7-2.6-4.6-3.4-5.9l-6.3,3.6l-6.4,3.6l3.5,6.2l3.6,6.2L19.6,37l16.7,29.3c3.9,6.9,12.7,9.4,19.6,5.5
		c0.1,0,0.1-0.1,0.2-0.1l0,0C63,67.6,65.4,58.6,61.4,51.6z"/>
	<g id="Group_9_00000058566648523054556830000004362808092979167875_" transform="translate(13.631 12.757)">
		<path id="Path_15_00000096740150277351611390000007685112527572404400_" class="st2" d="M15.8,26.8l3.5,6.2l-6.3,3.6l-3.6-6.2
			L15.8,26.8z"/>
		
			<rect id="Rectangle_13_00000032639495482965990710000003325749646244280460_" x="-10.5" y="-9.1" transform="matrix(0.8688 -0.4951 0.4951 0.8688 1.8533 -4.1094)" class="st3" width="7.3" height="7.2"/>
		
			<rect id="Rectangle_14_00000090973361110573203760000013840704334982573752_" x="7.2" y="22" transform="matrix(0.8688 -0.4951 0.4951 0.8688 -11.2208 8.7412)" class="st4" width="7.3" height="7.2"/>
		
			<rect id="Rectangle_15_00000035505188418993361260000011200043664732728449_" x="13.6" y="18.3" transform="matrix(0.8688 -0.4951 0.4951 0.8688 -8.5952 11.4099)" class="st2" width="7.3" height="7.2"/>
		
			<rect id="Rectangle_16_00000015313363127172228860000002706585311444254082_" x="3" y="-0.3" transform="matrix(0.8688 -0.4951 0.4951 0.8688 -0.7539 3.7007)" class="st3" width="7.3" height="7.2"/>
		
			<rect id="Rectangle_17_00000021092185868591049980000004001680579672706470_" x="10" y="12.1" transform="matrix(0.8688 -0.4951 0.4951 0.8688 -5.9778 8.8366)" class="st5" width="7.3" height="7.2"/>
		
			<rect id="Rectangle_18_00000027604276304927159630000015339286949017065119_" x="16.4" y="8.5" transform="matrix(0.8688 -0.4951 0.4951 0.8688 -3.3598 11.5085)" class="st2" width="7.3" height="7.2"/>
		
			<rect id="Rectangle_19_00000095338150962959933660000006864279555527211656_" x="5.8" y="-10.1" transform="matrix(0.8688 -0.4951 0.4951 0.8688 4.4811 3.7994)" class="st2" width="7.3" height="7.2"/>
		
			<rect id="Rectangle_20_00000083087259550513626730000010599449953486624663_" x="12.8" y="2.3" transform="matrix(0.8688 -0.4951 0.4951 0.8688 -0.7424 8.9352)" class="st4" width="7.3" height="7.2"/>
		
			<rect id="Rectangle_21_00000146493550877122777390000015502523841475983232_" x="0.1" y="9.5" transform="matrix(0.8688 -0.4951 0.4951 0.8688 -5.988 3.5998)" class="st5" width="7.3" height="7.2"/>
		
			<rect id="Rectangle_22_00000069397863858405272440000015006537212244732562_" x="19.2" y="-1.3" transform="matrix(0.8688 -0.4951 0.4951 0.8688 1.8809 11.6095)" class="st2" width="7.3" height="7.2"/>
		
			<rect id="Rectangle_23_00000101097778594903250340000015009778679526008233_" x="15.6" y="-7.6" transform="matrix(0.8688 -0.4951 0.4951 0.8688 4.4983 9.0361)" class="st5" width="7.3" height="7.2"/>
	</g>
	
		<linearGradient id="Path_16_00000101075677713583448120000017891491855724288905_" gradientUnits="userSpaceOnUse" x1="-638.9001" y1="418.5245" x2="-638.6046" y2="418.1412" gradientTransform="matrix(55.9362 0 0 -75.1479 35785.0469 31479.9961)">
		<stop  offset="3.000000e-03" style="stop-color:#99D2A8"/>
		<stop  offset="0.131" style="stop-color:#A0D1A1"/>
		<stop  offset="0.332" style="stop-color:#B2D290"/>
		<stop  offset="0.581" style="stop-color:#CCD472"/>
		<stop  offset="0.866" style="stop-color:#EDD739"/>
		<stop  offset="1" style="stop-color:#FCD900"/>
	</linearGradient>
	
		<path id="Path_16_00000078003466801145097180000017590952593003860920_" style="fill:url(#Path_16_00000101075677713583448120000017891491855724288905_);" d="
		M41.1,53.8l15.6-27c2.4-4.2,7.8-5.6,12-3.2l0,0c4.2,2.4,5.6,7.8,3.2,12l-15.6,27c-2.4,4.2-7.8,5.6-12,3.2l0,0
		C40.1,63.4,38.7,58,41.1,53.8z"/>
	
		<linearGradient id="Path_17_00000121278925373149366080000008986396096263226258_" gradientUnits="userSpaceOnUse" x1="-638.6418" y1="418.1859" x2="-638.3469" y2="418.5692" gradientTransform="matrix(55.9349 0 0 -75.152 35757.75 31481.7207)">
		<stop  offset="0" style="stop-color:#00B4ED"/>
		<stop  offset="0.158" style="stop-color:#00B6E6"/>
		<stop  offset="0.415" style="stop-color:#2EBCD7"/>
		<stop  offset="0.739" style="stop-color:#71C7C0"/>
		<stop  offset="1" style="stop-color:#99D2A8"/>
	</linearGradient>
	
		<path id="Path_17_00000047060146663916567450000006355302570835923122_" style="fill:url(#Path_17_00000121278925373149366080000008986396096263226258_);" d="
		M41,62.6l-15.6-27c-2.4-4.2-1-9.6,3.2-12l0,0c4.2-2.4,9.6-1,12,3.2l15.6,27c2.4,4.2,1,9.6-3.2,12l0,0C48.8,68.2,43.4,66.8,41,62.6z
		"/>
</g>
</svg>
