<?xml version="1.0" encoding="utf-8"?>
<!-- Generator: Adobe Illustrator 25.4.1, SVG Export Plug-In . SVG Version: 6.00 Build 0)  -->
<svg version="1.1" id="Layer_1" xmlns="http://www.w3.org/2000/svg" xmlns:xlink="http://www.w3.org/1999/xlink" x="0px" y="0px"
	 viewBox="0 0 24 24" style="enable-background:new 0 0 24 24;" xml:space="preserve">
<style type="text/css">
	.st0{fill:#777777;}
</style>
<g id="Q3_icons" transform="translate(5.071 2.631)">
	<path id="Path_19" class="st0" d="M13,8.8c2.3-2.7,1.9-6.7-0.8-9c-1.2-1-2.6-1.5-4.1-1.5h-9.9v22.1H9.3c3.5,0,6.4-2.9,6.4-6.4
		C15.7,12,14.7,10,13,8.8L13,8.8z M1.7,1.8h6.4c1.6,0,2.9,1.3,2.9,2.9S9.7,7.6,8.1,7.6H1.7V1.8z M9.3,16.9H1.7v-5.8h7.6
		c1.6,0,2.9,1.3,2.9,2.9S10.9,16.9,9.3,16.9z"/>
</g>
</svg>
