<?xml version="1.0" encoding="utf-8"?>
<!-- Generator: Adobe Illustrator 25.4.1, SVG Export Plug-In . SVG Version: 6.00 Build 0)  -->
<svg version="1.1" id="Layer_1" xmlns="http://www.w3.org/2000/svg" xmlns:xlink="http://www.w3.org/1999/xlink" x="0px" y="0px"
	 viewBox="0 0 24 24" style="enable-background:new 0 0 24 24;" xml:space="preserve">
<style type="text/css">
	.st0{fill:#777777;}
</style>
<path id="Icon_material-date-range" class="st0" d="M8.7,10.9H6.5v2.2h2.2L8.7,10.9z M13.1,10.9h-2.2v2.2h2.2V10.9z M17.5,10.9h-2.2
	v2.2h2.2V10.9z M19.7,3.2h-1.1V1h-2.2v2.2H7.6V1H5.4v2.2H4.3c-1.21,0-2.19,0.98-2.19,2.19c0,0,0,0.01,0,0.01L2.1,20.8
	c0,1.22,0.98,2.2,2.2,2.2h0h15.4c1.21,0,2.2-0.99,2.2-2.2V5.4C21.9,4.19,20.91,3.2,19.7,3.2z M19.7,20.8H4.3V8.7h15.4V20.8z"/>
</svg>
