<?xml version="1.0" encoding="utf-8"?>
<!-- Generator: Adobe Illustrator 25.4.1, SVG Export Plug-In . SVG Version: 6.00 Build 0)  -->
<svg version="1.1" id="Layer_1" xmlns="http://www.w3.org/2000/svg" xmlns:xlink="http://www.w3.org/1999/xlink" x="0px" y="0px"
	 viewBox="0 0 24 24" style="enable-background:new 0 0 24 24;" xml:space="preserve">
<path id="Icon_ionic-md-briefcase" d="M17.1,6.05v-2.1c0-1.18-0.95-2.14-2.13-2.15c0,0-0.01,0-0.01,0h-5.9
	C7.86,1.8,6.9,2.76,6.9,3.94c0,0,0,0.01,0,0.01v2.1H0.95v14c0,1.18,0.95,2.14,2.13,2.15c0,0,0.01,0,0.01,0h17.8
	c1.18,0,2.14-0.95,2.15-2.13c0,0,0-0.01,0-0.01v-14H17.1z M14.97,6.05H9.03V3.93h5.95V6.05z"/>
</svg>
