<?xml version="1.0" encoding="utf-8"?>
<!-- Generator: Adobe Illustrator 25.4.1, SVG Export Plug-In . SVG Version: 6.00 Build 0)  -->
<svg version="1.1" id="Layer_1" xmlns="http://www.w3.org/2000/svg" xmlns:xlink="http://www.w3.org/1999/xlink" x="0px" y="0px"
	 viewBox="0 0 24 24" style="enable-background:new 0 0 24 24;" xml:space="preserve">
<path id="_Color_00000032623063719975073270000008139619191127677349_" d="M12,22.8c-5.96,0-10.8-4.84-10.79-10.8
	c0-2.86,1.14-5.6,3.16-7.63c4.22-4.22,11.05-4.22,15.27,0s4.22,11.05,0,15.27l0,0C17.61,21.67,14.86,22.81,12,22.8z M12,13.52
	L12,13.52l3.88,3.87l1.52-1.52L13.52,12l3.87-3.88L15.87,6.6L12,10.48L8.12,6.6L6.6,8.13L10.48,12L6.6,15.88l1.52,1.52L12,13.52
	L12,13.52z"/>
</svg>
