<?xml version="1.0" encoding="utf-8"?>
<!-- Generator: Adobe Illustrator 25.4.1, SVG Export Plug-In . SVG Version: 6.00 Build 0)  -->
<svg version="1.1" id="Layer_1" xmlns="http://www.w3.org/2000/svg" xmlns:xlink="http://www.w3.org/1999/xlink" x="0px" y="0px"
	 viewBox="0 0 24 24" style="enable-background:new 0 0 24 24;" xml:space="preserve">
<style type="text/css">
	.st0{fill:#777777;}
</style>
<path id="Icon_material-color-lens" class="st0" d="M12,1.13C6,1.13,1.13,6,1.13,12S6,22.87,12,22.87c1,0,1.81-0.81,1.81-1.81
	c0-0.45-0.17-0.88-0.47-1.22c-0.66-0.74-0.6-1.88,0.14-2.55c0.33-0.3,0.76-0.46,1.21-0.46h2.14c3.33,0,6.04-2.7,6.04-6.04
	C22.87,5.46,18,1.13,12,1.13z M5.36,12c-1,0-1.81-0.81-1.81-1.81s0.81-1.81,1.81-1.81s1.81,0.81,1.81,1.81
	C7.17,11.19,6.36,12,5.36,12C5.36,12,5.36,12,5.36,12z M8.98,7.17c-1,0-1.81-0.81-1.81-1.81s0.81-1.81,1.81-1.81
	s1.81,0.81,1.81,1.81C10.79,6.36,9.99,7.17,8.98,7.17C8.98,7.17,8.98,7.17,8.98,7.17z M15.02,7.17c-1,0-1.81-0.81-1.81-1.81
	s0.81-1.81,1.81-1.81s1.81,0.81,1.81,1.81C16.83,6.36,16.02,7.17,15.02,7.17C15.02,7.17,15.02,7.17,15.02,7.17z M18.64,12
	c-1,0-1.81-0.81-1.81-1.81s0.81-1.81,1.81-1.81c1,0,1.81,0.81,1.81,1.81C20.45,11.19,19.64,12,18.64,12C18.64,12,18.64,12,18.64,12z
	"/>
</svg>
