<?xml version="1.0" encoding="utf-8"?>
<!-- Generator: Adobe Illustrator 26.2.0, SVG Export Plug-In . SVG Version: 6.00 Build 0)  -->
<svg version="1.1" id="Layer_1" xmlns="http://www.w3.org/2000/svg" xmlns:xlink="http://www.w3.org/1999/xlink" x="0px" y="0px"
	 viewBox="0 0 25 25" style="enable-background:new 0 0 25 25;" xml:space="preserve">
<style type="text/css">
	.st0{fill:#3276BF;}
</style>
<path id="Icon_material-content-copy" class="st0" d="M17.4,0.1H3.8c-1.3,0-2.3,1-2.3,2.3l0,0v15.8h2.3V2.4h13.6V0.1z M20.8,4.6H8.3
	c-1.3,0-2.3,1-2.3,2.3c0,0,0,0,0,0v15.8c0,1.3,1,2.3,2.3,2.3h12.4c1.3,0,2.3-1,2.3-2.3V6.9C23,5.7,22,4.6,20.8,4.6z M20.8,22.7H8.3
	V6.9h12.4V22.7z"/>
</svg>
