<?xml version="1.0" encoding="utf-8"?>
<!-- Generator: Adobe Illustrator 25.4.1, SVG Export Plug-In . SVG Version: 6.00 Build 0)  -->
<svg version="1.1" id="Layer_1" xmlns="http://www.w3.org/2000/svg" xmlns:xlink="http://www.w3.org/1999/xlink" x="0px" y="0px"
	 viewBox="0 0 24 24" style="enable-background:new 0 0 24 24;" xml:space="preserve">
<path id="Icon_metro-file-excel" d="M20.52,5.72c0.25,0.27,0.45,0.58,0.58,0.93c0.15,0.34,0.23,0.7,0.24,1.07v14.03
	c0,0.64-0.52,1.17-1.16,1.17c0,0-0.01,0-0.01,0H3.82c-0.64,0-1.17-0.52-1.17-1.16c0,0,0-0.01,0-0.01V2.26
	C2.64,1.62,3.16,1.09,3.8,1.09c0,0,0.01,0,0.01,0h10.91c0.37,0.01,0.73,0.09,1.07,0.24c0.34,0.13,0.66,0.33,0.93,0.58L20.52,5.72z
	 M15.12,2.75v4.58h4.58c-0.05-0.18-0.14-0.35-0.27-0.5l-3.81-3.81C15.47,2.89,15.3,2.8,15.12,2.75L15.12,2.75z M19.79,21.36V8.89
	h-5.07c-0.64,0-1.17-0.52-1.17-1.16c0,0,0-0.01,0-0.01V2.65H4.2v18.71H19.79L19.79,21.36z M7.87,18.51v1.29h3.42v-1.29h-0.91
	l1.26-1.96c0.05-0.06,0.09-0.13,0.12-0.2c0.04-0.08,0.07-0.13,0.09-0.16c0.02-0.03,0.03-0.05,0.04-0.05h0.02
	c0.01,0.04,0.03,0.08,0.06,0.12c0.02,0.03,0.03,0.06,0.06,0.09l0.07,0.1l0.08,0.1l1.3,1.96h-0.93v1.29h3.54v-1.29h-0.82l-2.34-3.33
	l2.37-3.43h0.81v-1.3h-3.4v1.3h0.9l-1.26,1.93c-0.03,0.06-0.07,0.12-0.12,0.2c-0.05,0.08-0.09,0.13-0.11,0.16l-0.02,0.04H12.1
	c-0.01-0.04-0.03-0.08-0.06-0.12c-0.06-0.1-0.13-0.2-0.21-0.28l-1.29-1.93h0.92v-1.3H7.92v1.3h0.83l2.3,3.31l-2.36,3.45L7.87,18.51
	L7.87,18.51z"/>
</svg>
