<?xml version="1.0" encoding="utf-8"?>
<!-- Generator: Adobe Illustrator 26.2.0, SVG Export Plug-In . SVG Version: 6.00 Build 0)  -->
<svg version="1.1" id="Layer_1" xmlns="http://www.w3.org/2000/svg" xmlns:xlink="http://www.w3.org/1999/xlink" x="0px" y="0px"
	 viewBox="0 0 25 25" style="enable-background:new 0 0 25 25;" xml:space="preserve">
<g id="Icon_ionic-ios-expand" transform="translate(-4.5 -4.5)">
	<path id="Path_466" d="M8,6.5h4.9c0.5,0,0.9-0.4,0.9-0.9c0,0,0,0,0,0v0c0-0.5-0.4-0.9-0.9-0.9c0,0,0,0,0,0h-7
		c-0.5,0-0.9,0.4-0.9,0.9c0,0,0,0,0,0v7c0,0.5,0.4,0.9,0.9,0.9c0,0,0,0,0,0h0c0.5,0,0.9-0.4,0.9-0.9c0,0,0,0,0,0V7.8L14,15
		c0.2,0.2,0.4,0.3,0.6,0.3c0.2,0,0.5-0.1,0.6-0.3c0.3-0.3,0.3-0.9,0-1.2L8,6.5z"/>
	<path id="Path_467" d="M28.1,4.7h-7c-0.5,0-0.9,0.4-0.9,0.9c0,0,0,0,0,0v0c0,0.5,0.4,0.9,0.9,0.9c0,0,0,0,0,0h4.9l-7.3,7.3
		c-0.3,0.3-0.3,0.9,0,1.2c0.3,0.3,0.9,0.3,1.2,0l0,0l7.3-7.3v4.9c0,0.5,0.4,0.9,0.9,0.9c0,0,0,0,0,0h0c0.5,0,0.9-0.4,0.9-0.9
		c0,0,0,0,0,0v-7C29,5.1,28.6,4.7,28.1,4.7C28.1,4.7,28.1,4.7,28.1,4.7z"/>
	<path id="Path_468" d="M14.6,18.2c-0.2,0-0.5,0.1-0.6,0.3l-7.3,7.3v-4.9c0-0.5-0.4-0.9-0.9-0.9c0,0,0,0,0,0h0
		c-0.5,0-0.9,0.4-0.9,0.9c0,0,0,0,0,0v7c0,0.5,0.4,0.9,0.9,0.9c0,0,0,0,0,0h7c0.5,0,0.9-0.4,0.9-0.9c0,0,0,0,0,0v0
		c0-0.5-0.4-0.9-0.9-0.9c0,0,0,0,0,0H8l7.3-7.3c0.3-0.3,0.3-0.9,0-1.2C15.1,18.3,14.9,18.2,14.6,18.2z"/>
	<path id="Path_469" d="M28.1,20L28.1,20c-0.5,0-0.9,0.4-0.9,0.9c0,0,0,0,0,0v4.9l-7.3-7.3c-0.2-0.2-0.4-0.3-0.6-0.3
		c-0.2,0-0.5,0.1-0.6,0.3c-0.3,0.3-0.3,0.9,0,1.2l7.3,7.3h-4.9c-0.5,0-0.9,0.4-0.9,0.9c0,0,0,0,0,0v0c0,0.5,0.4,0.9,0.9,0.9
		c0,0,0,0,0,0h7c0.5,0,0.9-0.4,0.9-0.9c0,0,0,0,0,0v-7C29,20.4,28.6,20,28.1,20C28.1,20,28.1,20,28.1,20z"/>
</g>
</svg>
