<?xml version="1.0" encoding="utf-8"?>
<!-- Generator: Adobe Illustrator 25.4.1, SVG Export Plug-In . SVG Version: 6.00 Build 0)  -->
<svg version="1.1" id="Layer_1" xmlns="http://www.w3.org/2000/svg" xmlns:xlink="http://www.w3.org/1999/xlink" x="0px" y="0px"
	 viewBox="0 0 24 24" style="enable-background:new 0 0 24 24;" xml:space="preserve">
<style type="text/css">
	.st0{fill:#777777;}
</style>
<path id="Icon_ionic-ios-funnel" class="st0" d="M1,3.08L1,3.08c0,0.3,0.1,0.6,0.3,0.83l8.05,9.51c0.19,0.23,0.3,0.53,0.3,0.83v5.66
	c-0.01,0.51,0.3,0.97,0.77,1.16l2.91,1.05c0.42,0.13,0.87-0.11,1-0.53c0.03-0.09,0.04-0.19,0.03-0.28v-7.07c0-0.3,0.1-0.6,0.3-0.83
	L22.7,3.9C22.9,3.67,23,3.38,23,3.07l0,0c0.03-0.65-0.48-1.2-1.13-1.23c0,0,0,0,0,0H2.13C1.48,1.88,0.98,2.43,1,3.08z"/>
</svg>
