<?xml version="1.0" encoding="utf-8"?>
<!-- Generator: Adobe Illustrator 25.4.1, SVG Export Plug-In . SVG Version: 6.00 Build 0)  -->
<svg version="1.1" id="Layer_1" xmlns="http://www.w3.org/2000/svg" xmlns:xlink="http://www.w3.org/1999/xlink" x="0px" y="0px"
	 viewBox="0 0 24 24" style="enable-background:new 0 0 24 24;" xml:space="preserve">
<style type="text/css">
	.st0{fill:#6B6B6B;}
	.st1{fill:#777777;stroke:#FFFFFF;stroke-width:0.25;stroke-miterlimit:10;}
</style>
<g>
	<path id="_Color_00000057140538046753791780000010790035368848803212_" class="st0" d="M12,20.88c-2.54,0.01-5.01-0.77-7.1-2.22
		c-2.03-1.41-3.6-3.39-4.51-5.7c2.52-6.41,9.76-9.57,16.17-7.05c3.23,1.27,5.78,3.82,7.05,7.05c-0.91,2.3-2.47,4.29-4.51,5.7
		C17.02,20.11,14.54,20.89,12,20.88z M12,7.69c-2.91,0-5.28,2.36-5.28,5.28s2.36,5.28,5.28,5.28s5.28-2.36,5.28-5.28
		C17.27,10.05,14.91,7.69,12,7.69z M12,16.13c-1.75,0-3.17-1.42-3.17-3.17S10.25,9.8,12,9.8s3.17,1.42,3.17,3.17
		S13.75,16.13,12,16.13z"/>
	<path id="Path_76" class="st1" d="M3.97,2.67C3.68,2.42,3.23,2.45,2.98,2.74c-0.23,0.26-0.23,0.66,0,0.92L20.6,21.3
		c0.18,0.18,0.44,0.25,0.68,0.18c0.12-0.03,0.23-0.09,0.32-0.18c0.27-0.27,0.27-0.72,0-0.99L3.97,2.67z"/>
</g>
</svg>
