<?xml version="1.0" encoding="utf-8"?>
<!-- Generator: Adobe Illustrator 25.4.1, SVG Export Plug-In . SVG Version: 6.00 Build 0)  -->
<svg version="1.1" id="Layer_1" xmlns="http://www.w3.org/2000/svg" xmlns:xlink="http://www.w3.org/1999/xlink" x="0px" y="0px"
	 viewBox="0 0 24 24" style="enable-background:new 0 0 24 24;" xml:space="preserve">
<style type="text/css">
	.st0{fill:#777777;}
</style>
<path id="Icon_material-border-vertical" class="st0" d="M1,8.24h2.41V5.83H1V8.24z M1,3.41h2.41V1H1V3.41z M5.83,22.73h2.41v-2.41
	H5.83V22.73z M5.83,13.07h2.41v-2.41H5.83V13.07z M1,13.07h2.41v-2.41H1V13.07z M1,22.73h2.41v-2.41H1V22.73z M1,17.9h2.41v-2.41H1
	V17.9z M5.83,3.41h2.41V1H5.83V3.41z M20.32,17.9h2.41v-2.41h-2.41V17.9z M10.66,22.73h2.41V1h-2.41V22.73z M20.32,22.73h2.41v-2.41
	h-2.41V22.73z M20.32,13.07h2.41v-2.41h-2.41V13.07z M20.32,1v2.41h2.41V1H20.32z M20.32,8.24h2.41V5.83h-2.41V8.24z M15.49,3.41
	h2.41V1h-2.41V3.41z M15.49,22.73h2.41v-2.41h-2.41V22.73z M15.49,13.07h2.41v-2.41h-2.41V13.07z"/>
</svg>
