<?xml version="1.0" encoding="utf-8"?>
<!-- Generator: Adobe Illustrator 26.2.0, SVG Export Plug-In . SVG Version: 6.00 Build 0)  -->
<svg version="1.1" id="Layer_1" xmlns="http://www.w3.org/2000/svg" xmlns:xlink="http://www.w3.org/1999/xlink" x="0px" y="0px"
	 viewBox="0 0 25 25" style="enable-background:new 0 0 25 25;" xml:space="preserve">
<style type="text/css">
	.st0{fill:#718792;}
</style>
<g id="Group_392" transform="translate(-1106.755 -95)">
	<path id="Icon_map-lawyer" class="st0" d="M1116.7,104.1c0.1,1,1.1,1.8,2.1,1.6c0.9-0.1,1.5-0.8,1.6-1.6H1116.7z M1127,107.9
		c0,0.2-0.1,0.3-0.3,0.3c0,0,0,0,0,0h-5.5c-0.2,0-0.3-0.1-0.3-0.3c0-0.2,0.1-0.3,0.3-0.3h5.5C1126.9,107.6,1127,107.7,1127,107.9z
		 M1120.9,108.3h6v0.8h-6L1120.9,108.3z M1127.5,104.1c0.1,1,1.1,1.8,2.1,1.6c0.9-0.1,1.5-0.8,1.6-1.6H1127.5z M1131.1,103.5
		l-1.5-2.1h0.8c0.2,0,0.4-0.2,0.4-0.4c0-0.2-0.2-0.4-0.4-0.4h-4.4c-0.3-0.7-0.9-1.3-1.7-1.4v-1.1c0-0.2-0.2-0.4-0.4-0.4c0,0,0,0,0,0
		h0h0c-0.2,0-0.4,0.2-0.4,0.4c0,0,0,0,0,0v1.1c-0.8,0.1-1.4,0.7-1.7,1.4h-4.4c-0.2,0-0.4,0.2-0.4,0.4c0,0.2,0.2,0.4,0.4,0.4h0.8
		l-1.5,2.1h-0.2v0.4h3.9v-0.4h-0.2l-1.5-2.1h3.6c0-0.1,0-0.2,0-0.2c0,0,0-0.1,0-0.1c0.1-0.6,0.6-1,1.1-1.2v4h0
		c0,1.4-0.7,2.7-1.8,3.6h4.5c-1.1-0.8-1.8-2.2-1.8-3.6h0v-4c0.6,0.1,1,0.6,1.1,1.2c0,0,0,0.1,0,0.1c0,0.1,0,0.2,0,0.2h3.5l-1.5,2.1
		h-0.2v0.4h3.9v-0.4L1131.1,103.5z M1118.5,103.5h-1.2l1.2-1.7L1118.5,103.5L1118.5,103.5z M1118.8,103.5v-1.7l1.2,1.7L1118.8,103.5
		L1118.8,103.5z M1129.2,103.5h-1.2l1.2-1.7L1129.2,103.5z M1129.5,103.5v-1.7l1.2,1.7L1129.5,103.5z M1119,100.1
		c0,0.2-0.2,0.4-0.4,0.4c-0.2,0-0.4-0.2-0.4-0.4s0.2-0.4,0.4-0.4S1119,99.9,1119,100.1C1119,100.1,1119,100.1,1119,100.1z
		 M1129.7,100.1c0,0.2-0.2,0.4-0.4,0.4c-0.2,0-0.4-0.2-0.4-0.4c0-0.2,0.2-0.4,0.4-0.4c0.1,0,0.1,0,0.2,0.1
		C1129.7,99.9,1129.7,100,1129.7,100.1L1129.7,100.1z"/>
	<path id="Icon_awesome-hand-holding" class="st0" d="M1130.9,109.5c-0.5-0.4-1.3-0.4-1.8,0l-3.9,3.1c-0.5,0.4-1.1,0.6-1.7,0.6h-5
		c-0.4,0-0.7-0.3-0.7-0.7s0.3-0.7,0.7-0.7l0,0h3.3c0.7,0,1.3-0.5,1.4-1.1c0.1-0.7-0.4-1.4-1.1-1.6c-0.1,0-0.2,0-0.2,0h-6.7
		c-1.1,0-2.2,0.4-3.1,1.1l-2,1.6h-2.3c-0.4,0-0.7,0.3-0.7,0.7v4c0,0.4,0.3,0.7,0.7,0.7h15c0.6,0,1.2-0.2,1.7-0.6l6.3-5.1
		c0.6-0.5,0.7-1.3,0.2-1.9C1131,109.6,1131,109.6,1130.9,109.5z"/>
</g>
</svg>
