<?xml version="1.0" encoding="utf-8"?>
<!-- Generator: Adobe Illustrator 26.2.0, SVG Export Plug-In . SVG Version: 6.00 Build 0)  -->
<svg version="1.1" id="Layer_1" xmlns="http://www.w3.org/2000/svg" xmlns:xlink="http://www.w3.org/1999/xlink" x="0px" y="0px"
	 viewBox="0 0 25 25" style="enable-background:new 0 0 25 25;" xml:space="preserve">
<path id="Icon_ionic-md-lock" d="M19.6,8.2h-1.2V5.8c-0.2-3.3-2.9-5.8-6.2-5.7C9.1,0.3,6.7,2.7,6.5,5.8v2.4H5.3C4,8.2,3,9.3,3,10.6
	v11.9c0,1.3,1.1,2.4,2.4,2.4h14.3c1.3,0,2.4-1.1,2.4-2.4V10.6C22,9.3,21,8.2,19.6,8.2z M12.5,19c-1.3,0-2.4-1.1-2.4-2.4
	s1.1-2.4,2.4-2.4s2.4,1.1,2.4,2.4C14.9,18,13.8,19,12.5,19L12.5,19z M16.2,8.2H8.8V5.8c0-2,1.7-3.7,3.7-3.7s3.7,1.7,3.7,3.7
	L16.2,8.2z"/>
</svg>
