<?xml version="1.0" encoding="utf-8"?>
<!-- Generator: Adobe Illustrator 25.4.1, SVG Export Plug-In . SVG Version: 6.00 Build 0)  -->
<svg version="1.1" id="Layer_1" xmlns="http://www.w3.org/2000/svg" xmlns:xlink="http://www.w3.org/1999/xlink" x="0px" y="0px"
	 viewBox="0 0 24 24" style="enable-background:new 0 0 24 24;" xml:space="preserve">
<style type="text/css">
	.st0{fill:none;}
	.st1{fill:#777777;}
</style>
<rect id="Boundary" class="st0" width="24" height="24"/>
<path id="_Color" class="st1" d="M18,14c-1.1,0-2-0.9-2-2s0.9-2,2-2s2,0.9,2,2S19.1,14,18,14z M12,14c-1.1,0-2-0.9-2-2s0.9-2,2-2
	s2,0.9,2,2S13.1,14,12,14z M6,14c-1.1,0-2-0.9-2-2s0.9-2,2-2s2,0.9,2,2S7.1,14,6,14z"/>
</svg>
