<?xml version="1.0" encoding="utf-8"?>
<!-- Generator: Adobe Illustrator 25.4.1, SVG Export Plug-In . SVG Version: 6.00 Build 0)  -->
<svg version="1.1" id="Layer_1" xmlns="http://www.w3.org/2000/svg" xmlns:xlink="http://www.w3.org/1999/xlink" x="0px" y="0px"
	 viewBox="0 0 24 24" style="enable-background:new 0 0 24 24;" xml:space="preserve">
<path id="Icon_metro-file-word" d="M20.53,5.72c0.25,0.27,0.45,0.58,0.58,0.93c0.15,0.34,0.23,0.7,0.24,1.07v14.03
	c0,0.64-0.52,1.17-1.16,1.17c0,0-0.01,0-0.01,0H3.82c-0.64,0-1.17-0.52-1.17-1.16c0,0,0-0.01,0-0.01V2.26
	C2.64,1.62,3.16,1.09,3.8,1.09c0,0,0.01,0,0.01,0h10.91c0.37,0.01,0.73,0.09,1.07,0.24c0.34,0.13,0.66,0.33,0.93,0.58L20.53,5.72z
	 M15.12,2.75v4.58h4.58c-0.05-0.18-0.14-0.35-0.27-0.5l-3.81-3.81C15.47,2.89,15.3,2.8,15.12,2.75L15.12,2.75z M19.8,21.35V8.88
	h-5.07c-0.64,0-1.17-0.52-1.17-1.16c0,0,0-0.01,0-0.01V2.65H4.21v18.71L19.8,21.35L19.8,21.35z M5.49,10.44v1.3h0.85l2,8.05h1.93
	l1.56-5.91c0.09-0.28,0.14-0.56,0.15-0.85h0.05l0.04,0.29c0.02,0.08,0.03,0.16,0.04,0.24c0.01,0.11,0.04,0.21,0.07,0.32l1.56,5.91
	h1.94l2-8.05h0.85v-1.3h-3.66v1.3h1.1l-1.2,5.33c-0.04,0.18-0.07,0.37-0.09,0.56l-0.02,0.26H14.6l-0.04-0.26
	c-0.01-0.04-0.02-0.13-0.05-0.26c-0.02-0.13-0.05-0.23-0.06-0.3l-1.76-6.64h-1.39l-1.75,6.64c-0.02,0.07-0.03,0.17-0.06,0.3
	c-0.02,0.13-0.03,0.21-0.04,0.26l-0.05,0.26H9.36l-0.02-0.26c-0.01-0.19-0.04-0.38-0.09-0.56l-1.2-5.33h1.1v-1.3H5.49z"/>
</svg>
