<?xml version="1.0" encoding="utf-8"?>
<!-- Generator: Adobe Illustrator 25.4.1, SVG Export Plug-In . SVG Version: 6.00 Build 0)  -->
<svg version="1.1" id="Layer_1" xmlns="http://www.w3.org/2000/svg" xmlns:xlink="http://www.w3.org/1999/xlink" x="0px" y="0px"
	 viewBox="0 0 24 24" style="enable-background:new 0 0 24 24;" xml:space="preserve">
<style type="text/css">
	.st0{fill:#707070;}
</style>
<path id="_Color_00000072999941931330974530000014050529252650578823_" class="st0" d="M12,23.25c-1.29,0.02-2.35-1.02-2.38-2.31
	h4.75C14.35,22.24,13.29,23.27,12,23.25z M21.5,19.79h-19v-1.15l2.38-2.31v-5.77c-0.03-1.67,0.46-3.31,1.4-4.68
	c0.95-1.33,2.35-2.26,3.94-2.61V2.49c0.02-0.98,0.84-1.76,1.82-1.74c0.95,0.02,1.72,0.79,1.74,1.74v0.78c1.6,0.35,3,1.28,3.95,2.61
	c0.94,1.38,1.43,3.01,1.39,4.68v5.77l2.38,2.31V19.79L21.5,19.79z M12,5.37c-1.33-0.04-2.61,0.52-3.48,1.52
	c-0.85,1.03-1.3,2.33-1.27,3.67v6.92h9.5v-6.92c0.03-1.34-0.42-2.64-1.27-3.67C14.61,5.89,13.33,5.33,12,5.37z"/>
</svg>
