<?xml version="1.0" encoding="utf-8"?>
<!-- Generator: Adobe Illustrator 26.0.2, SVG Export Plug-In . SVG Version: 6.00 Build 0)  -->
<svg version="1.1" id="Layer_1" xmlns="http://www.w3.org/2000/svg" xmlns:xlink="http://www.w3.org/1999/xlink" x="0px" y="0px"
	 viewBox="0 0 24 24" style="enable-background:new 0 0 24 24;" xml:space="preserve">
<style type="text/css">
	.st0{fill:#717171;}
</style>
<path id="Icon_material-control-point-duplicate" class="st0" d="M15.75,8.26h-1.87v2.81h-2.81v1.87h2.81v2.81h1.87v-2.81h2.81
	v-1.87h-2.81V8.26z M2.64,12c0-2.53,1.46-4.84,3.75-5.92V4.06C2.01,5.6-0.3,10.4,1.24,14.79c0.85,2.41,2.74,4.31,5.15,5.15v-2.02
	C4.1,16.84,2.64,14.53,2.64,12z M14.81,3.57c-4.65,0-8.43,3.77-8.43,8.43s3.77,8.43,8.43,8.43s8.43-3.77,8.43-8.43
	C23.23,7.35,19.46,3.58,14.81,3.57z M14.81,18.55c-3.62,0-6.55-2.93-6.55-6.55s2.93-6.55,6.55-6.55s6.55,2.93,6.55,6.55
	C21.36,15.62,18.43,18.55,14.81,18.55z"/>
</svg>
