<?xml version="1.0" encoding="utf-8"?>
<!-- Generator: Adobe Illustrator 25.4.1, SVG Export Plug-In . SVG Version: 6.00 Build 0)  -->
<svg version="1.1" id="Layer_1" xmlns="http://www.w3.org/2000/svg" xmlns:xlink="http://www.w3.org/1999/xlink" x="0px" y="0px"
	 viewBox="0 0 24 24" style="enable-background:new 0 0 24 24;" xml:space="preserve">
<path id="Icon_simple-microsoftoutlook" d="M23,7.77v9.6c0.01,0.2-0.07,0.39-0.22,0.53c-0.14,0.14-0.33,0.22-0.53,0.21h-7.83v-6.38
	l1.47,1.12c0.1,0.08,0.22,0.12,0.35,0.11c0.13,0,0.25-0.04,0.36-0.11L23,7.77z M14.41,5.92h7.83c0.18,0,0.36,0.06,0.5,0.18
	c0.14,0.12,0.22,0.29,0.22,0.47l-6.75,5.39l-1.8-1.42L14.41,5.92L14.41,5.92z M13.29,1.79v20.42L1,20.08V3.97L13.29,1.79L13.29,1.79
	L13.29,1.79z M9.58,12.04c0.02-0.93-0.26-1.83-0.81-2.58C8.33,8.81,7.61,8.42,6.82,8.39C6.05,8.43,5.34,8.82,4.9,9.46
	c-0.54,0.75-0.82,1.66-0.8,2.58c-0.02,0.92,0.27,1.82,0.81,2.56c0.44,0.63,1.15,1.03,1.93,1.08c0.79-0.03,1.51-0.43,1.97-1.07
	c0.54-0.74,0.83-1.64,0.81-2.56L9.58,12.04L9.58,12.04z M6.72,9.77c0.42,0.03,0.8,0.28,0.99,0.66c0.28,0.49,0.42,1.04,0.4,1.61
	c0.02,0.57-0.12,1.13-0.4,1.62c-0.2,0.38-0.58,0.63-1,0.65c-0.42-0.01-0.81-0.26-1-0.63c-0.29-0.49-0.42-1.04-0.4-1.61
	c-0.03-0.56,0.11-1.11,0.4-1.59c0.2-0.37,0.57-0.62,0.99-0.66L6.72,9.77z"/>
</svg>
