<?xml version="1.0" encoding="utf-8"?>
<!-- Generator: Adobe Illustrator 25.4.1, SVG Export Plug-In . SVG Version: 6.00 Build 0)  -->
<svg version="1.1" id="Layer_1" xmlns="http://www.w3.org/2000/svg" xmlns:xlink="http://www.w3.org/1999/xlink" x="0px" y="0px"
	 viewBox="0 0 24 24" style="enable-background:new 0 0 24 24;" xml:space="preserve">
<path id="Icon_material-portrait" d="M12,12.28c1.38,0,2.5-1.12,2.5-2.5s-1.12-2.5-2.5-2.5S9.5,8.4,9.5,9.78
	C9.5,11.16,10.62,12.28,12,12.28z M17,16.72c0-1.67-3.33-2.5-5-2.5s-5,0.83-5,2.5v0.83h10V16.72z M19.78,2H4.22C3,2,2,3,2,4.22
	v15.56C2,21,3,22,4.22,22h15.56C21,22,22,21,22,19.78V4.22C22,3,21,2,19.78,2z M19.78,19.78H4.22V4.22h15.56V19.78z"/>
</svg>
