<?xml version="1.0" encoding="utf-8"?>
<!-- Generator: Adobe Illustrator 25.4.1, SVG Export Plug-In . SVG Version: 6.00 Build 0)  -->
<svg version="1.1" id="Layer_1" xmlns="http://www.w3.org/2000/svg" xmlns:xlink="http://www.w3.org/1999/xlink" x="0px" y="0px"
	 viewBox="0 0 24 24" style="enable-background:new 0 0 24 24;" xml:space="preserve">
<path id="Icon_metro-file-powerpoint" d="M20.59,5.67c0.26,0.27,0.46,0.59,0.59,0.93c0.15,0.34,0.23,0.71,0.24,1.08v14.14
	c0,0.65-0.52,1.18-1.17,1.18c0,0-0.01,0-0.01,0H3.75c-0.65,0-1.18-0.52-1.18-1.17c0,0,0-0.01,0-0.01V2.18
	C2.57,1.53,3.09,1.01,3.74,1c0,0,0.01,0,0.01,0h11c0.37,0.01,0.74,0.09,1.08,0.24c0.35,0.13,0.66,0.33,0.93,0.59L20.59,5.67z
	 M15.15,2.67v4.61h4.61c-0.05-0.19-0.14-0.36-0.27-0.5l-3.84-3.84C15.5,2.82,15.33,2.73,15.15,2.67L15.15,2.67z M19.86,21.43V8.86
	h-5.11c-0.65,0-1.18-0.52-1.18-1.17c0,0,0-0.01,0-0.01V2.57H4.15v18.85L19.86,21.43L19.86,21.43z M7.68,18.55v1.3h4.01v-1.3h-1.14
	v-2.05h1.68c0.49,0.02,0.98-0.04,1.45-0.18c0.55-0.19,1.01-0.57,1.31-1.07c0.33-0.54,0.5-1.16,0.48-1.79
	c0.01-0.61-0.14-1.21-0.45-1.73c-0.29-0.48-0.72-0.85-1.23-1.07c-0.51-0.17-1.05-0.25-1.6-0.23H7.68v1.31h1.13v6.81H7.68z
	 M12.01,15.12h-1.46v-3.29h1.47c0.35-0.02,0.7,0.06,1.02,0.22c0.48,0.3,0.74,0.85,0.69,1.41c0.07,0.6-0.23,1.18-0.76,1.47
	C12.67,15.07,12.34,15.13,12.01,15.12L12.01,15.12z"/>
</svg>
