<?xml version="1.0" encoding="utf-8"?>
<!-- Generator: Adobe Illustrator 25.4.1, SVG Export Plug-In . SVG Version: 6.00 Build 0)  -->
<svg version="1.1" id="Layer_1" xmlns="http://www.w3.org/2000/svg" xmlns:xlink="http://www.w3.org/1999/xlink" x="0px" y="0px"
	 viewBox="0 0 24 24" style="enable-background:new 0 0 24 24;" xml:space="preserve">
<style type="text/css">
	.st0{fill:#777777;}
</style>
<path id="Icon_material-exit-to-app" class="st0" d="M9.8,16.14l1.62,1.62L17.18,12l-5.76-5.76L9.8,7.86l2.97,2.98H1.63v2.3h11.14
	L9.8,16.14z M20.06,1.63H3.94c-1.27,0-2.3,1.03-2.3,2.3c0,0,0,0,0,0v4.61h2.3V3.94h16.13v16.13H3.94v-4.61h-2.3v4.61
	c0,1.27,1.03,2.3,2.3,2.3c0,0,0,0,0,0h16.13c1.27,0,2.3-1.03,2.3-2.3V3.94C22.36,2.67,21.33,1.64,20.06,1.63z"/>
</svg>
