<?xml version="1.0" encoding="utf-8"?>
<!-- Generator: Adobe Illustrator 26.2.0, SVG Export Plug-In . SVG Version: 6.00 Build 0)  -->
<svg version="1.1" id="Layer_1" xmlns="http://www.w3.org/2000/svg" xmlns:xlink="http://www.w3.org/1999/xlink" x="0px" y="0px"
	 viewBox="0 0 25 25" style="enable-background:new 0 0 25 25;" xml:space="preserve">
<g id="Icon_ionic-ios-shuffle" transform="translate(-4.5 -8.445)">
	<path id="Path_485" d="M26.7,22.9c-0.2-0.2-0.4-0.3-0.6-0.3c-0.2,0-0.5,0.1-0.6,0.3c-0.2,0.2-0.3,0.4-0.3,0.6
		c0,0.2,0.1,0.5,0.3,0.6l1,1h-4.8l-8-9.9v0c-0.2-0.2-0.4-0.3-0.7-0.3H5.6c-0.5,0-0.9,0.4-0.9,0.9c0,0.5,0.4,0.9,0.9,0.9
		c0,0,0,0,0.1,0h6.9l3.4,4.2l-3.4,4.2H5.6c-0.5,0-0.9,0.4-0.9,0.9c0,0.5,0.4,0.9,0.9,0.9c0,0,0,0,0.1,0h7.3c0.3,0,0.5-0.1,0.7-0.3
		l0,0l3.4-4.3l3.4,4.3l0,0c0.2,0.2,0.4,0.3,0.7,0.3h5.4l-1,1c-0.2,0.2-0.3,0.4-0.3,0.6c0,0.2,0.1,0.5,0.3,0.6
		c0.2,0.2,0.4,0.3,0.6,0.3c0.2,0,0.5-0.1,0.6-0.3l2.2-2.1c0.5-0.5,0.6-1.4,0-2c0,0,0,0,0,0L26.7,22.9z"/>
	<path id="Path_486" d="M18.5,19.6c0.1,0.1,0.2,0.1,0.3,0.1h0c0.1,0,0.2-0.1,0.3-0.1l2.4-3h4.9l-1,1c-0.2,0.2-0.3,0.4-0.3,0.6
		c0,0.2,0.1,0.5,0.3,0.6c0.2,0.2,0.4,0.3,0.6,0.3c0.2,0,0.5-0.1,0.6-0.3l2.3-2.3c0.5-0.5,0.6-1.4,0-2c0,0,0,0,0,0l-2.2-2.1
		c-0.2-0.2-0.4-0.3-0.6-0.3c-0.2,0-0.5,0.1-0.6,0.3c-0.2,0.2-0.3,0.4-0.3,0.6c0,0.2,0.1,0.5,0.3,0.6l1,1h-5.4
		c-0.3,0-0.5,0.1-0.7,0.3l0,0l-2.6,3.2c-0.1,0.1-0.1,0.3,0,0.5L18.5,19.6z"/>
</g>
</svg>
