<?xml version="1.0" encoding="utf-8"?>
<!-- Generator: Adobe Illustrator 25.4.1, SVG Export Plug-In . SVG Version: 6.00 Build 0)  -->
<svg version="1.1" id="Layer_1" xmlns="http://www.w3.org/2000/svg" xmlns:xlink="http://www.w3.org/1999/xlink" x="0px" y="0px"
	 viewBox="0 0 24 24" style="enable-background:new 0 0 24 24;" xml:space="preserve">
<style type="text/css">
	.st0{fill:#777777;}
</style>
<path id="Icon_material-rate-review" class="st0" d="M20.64,1.21H3.36c-1.19,0-2.15,0.97-2.15,2.16L1.2,22.79l4.32-4.32h15.11
	c1.19,0,2.16-0.97,2.16-2.16V3.37C22.79,2.18,21.83,1.21,20.64,1.21z M5.52,14.16v-2.66l7.42-7.42c0.21-0.21,0.54-0.22,0.76-0.01
	c0,0,0.01,0.01,0.01,0.01l1.91,1.91c0.21,0.21,0.22,0.54,0.01,0.76c0,0-0.01,0.01-0.01,0.01l-7.44,7.41H5.52z M18.47,14.16h-8.09
	L12.54,12h5.94L18.47,14.16z"/>
</svg>
