<?xml version="1.0" encoding="utf-8"?>
<!-- Generator: Adobe Illustrator 25.4.1, SVG Export Plug-In . SVG Version: 6.00 Build 0)  -->
<svg version="1.1" id="Layer_1" xmlns="http://www.w3.org/2000/svg" xmlns:xlink="http://www.w3.org/1999/xlink" x="0px" y="0px"
	 viewBox="0 0 24 24" style="enable-background:new 0 0 24 24;" xml:space="preserve">
<style type="text/css">
	.st0{fill:#777777;}
</style>
<path id="_Color_00000157276211626509896880000008168210426415698608_" class="st0" d="M21.13,23L21.13,23l-6.28-6.27v-0.99
	l-0.34-0.35c-3.43,2.94-8.59,2.55-11.53-0.88S0.42,5.92,3.85,2.97s8.59-2.55,11.53,0.88c2.63,3.06,2.63,7.59,0,10.65l0.35,0.34h0.99
	L23,21.13L21.13,23L21.13,23z M9.19,3.54c-3.12,0-5.65,2.53-5.65,5.65s2.53,5.65,5.65,5.65s5.65-2.53,5.65-5.65l0,0
	C14.84,6.07,12.31,3.54,9.19,3.54z"/>
</svg>
