<?xml version="1.0" encoding="utf-8"?>
<!-- Generator: Adobe Illustrator 25.4.1, SVG Export Plug-In . SVG Version: 6.00 Build 0)  -->
<svg version="1.1" id="Layer_1" xmlns="http://www.w3.org/2000/svg" xmlns:xlink="http://www.w3.org/1999/xlink" x="0px" y="0px"
	 viewBox="0 0 24 24" style="enable-background:new 0 0 24 24;" xml:space="preserve">
<style type="text/css">
	.st0{fill:#707070;}
</style>
<path id="_Color_00000108285154950537084440000001080898238180299933_" class="st0" d="M14.11,22.81H9.9c-0.26,0-0.49-0.2-0.53-0.46
	l-0.4-2.86c-0.64-0.27-1.23-0.62-1.78-1.05l-2.62,1.08c-0.06,0.02-0.12,0.03-0.18,0.03c-0.19,0-0.37-0.1-0.46-0.27l-2.11-3.74
	c-0.12-0.23-0.06-0.52,0.13-0.69l2.22-1.78C4.13,12.71,4.1,12.35,4.11,12c0-0.35,0.03-0.71,0.09-1.05L1.97,9.16
	C1.76,9,1.7,8.7,1.84,8.47l2.11-3.74C4.03,4.56,4.21,4.45,4.4,4.45c0.06,0,0.13,0.01,0.19,0.04l2.62,1.08
	c0.54-0.43,1.14-0.78,1.78-1.05l0.4-2.86C9.41,1.39,9.63,1.19,9.9,1.19h4.21c0.27,0,0.49,0.2,0.53,0.46l0.4,2.86
	c0.64,0.27,1.23,0.62,1.78,1.05l2.62-1.08c0.06-0.02,0.12-0.03,0.18-0.03c0.19,0,0.37,0.1,0.46,0.27l2.11,3.74
	c0.12,0.23,0.07,0.52-0.13,0.69l-2.22,1.78c0.05,0.35,0.08,0.7,0.08,1.05c0,0.35-0.02,0.7-0.07,1.05l2.2,1.78
	c0.21,0.16,0.27,0.46,0.13,0.69l-2.11,3.74c-0.09,0.17-0.27,0.28-0.46,0.28c-0.06,0-0.13-0.01-0.19-0.04l-2.62-1.08
	c-0.54,0.43-1.14,0.78-1.78,1.05l-0.4,2.86C14.59,22.61,14.37,22.81,14.11,22.81z M12,7.95C9.76,8,7.99,9.85,8.04,12.09
	c0.05,2.17,1.79,3.91,3.96,3.96c2.24-0.05,4.01-1.91,3.96-4.14C15.92,9.74,14.17,8,12,7.95z"/>
</svg>
