<?xml version="1.0" encoding="utf-8"?>
<!-- Generator: Adobe Illustrator 26.0.2, SVG Export Plug-In . SVG Version: 6.00 Build 0)  -->
<svg version="1.1" id="Layer_1" xmlns="http://www.w3.org/2000/svg" xmlns:xlink="http://www.w3.org/1999/xlink" x="0px" y="0px"
	 viewBox="0 0 24 24" style="enable-background:new 0 0 24 24;" xml:space="preserve">
<style type="text/css">
	.st0{fill:#717171;}
</style>
<path id="Icon_material-share" class="st0" d="M18.44,16.7c-0.83,0-1.63,0.32-2.24,0.88l-8.13-4.73c0.14-0.52,0.14-1.07,0-1.6
	l8.04-4.69c1.38,1.28,3.54,1.2,4.83-0.19c1.28-1.38,1.2-3.54-0.19-4.83c-1.38-1.28-3.54-1.2-4.83,0.19
	c-0.59,0.63-0.91,1.46-0.91,2.33c0.01,0.27,0.04,0.54,0.1,0.8L7.08,9.55C5.7,8.26,3.53,8.33,2.24,9.71s-1.22,3.55,0.16,4.84
	c1.32,1.23,3.36,1.23,4.68,0l8.12,4.74c-0.06,0.24-0.09,0.49-0.09,0.74c0,1.84,1.49,3.33,3.33,3.33s3.33-1.49,3.33-3.33
	S20.28,16.7,18.44,16.7L18.44,16.7L18.44,16.7z"/>
</svg>
