<?xml version="1.0" encoding="utf-8"?>
<!-- Generator: Adobe Illustrator 25.4.1, SVG Export Plug-In . SVG Version: 6.00 Build 0)  -->
<svg version="1.1" id="Layer_1" xmlns="http://www.w3.org/2000/svg" xmlns:xlink="http://www.w3.org/1999/xlink" x="0px" y="0px"
	 viewBox="0 0 24 24" style="enable-background:new 0 0 24 24;" xml:space="preserve">
<style type="text/css">
	.st0{fill:#2DB67E;}
	.st1{fill:#DF1D5A;}
	.st2{fill:#EBB22E;}
	.st3{fill:#36C4F0;}
</style>
<g>
	<path id="Path_20" class="st0" d="M14.7,9.9c-0.9,0-1.6-0.7-1.6-1.6c0,0,0,0,0,0V3.1c0-0.9,0.7-1.6,1.6-1.5c0.8,0,1.5,0.7,1.5,1.5
		v5.3C16.2,9.2,15.5,9.9,14.7,9.9C14.7,9.9,14.7,9.9,14.7,9.9z"/>
	<path id="Path_21" class="st0" d="M21,9.9h-1.6V8.3c0-0.9,0.7-1.6,1.6-1.6s1.6,0.7,1.6,1.6C22.5,9.2,21.8,9.9,21,9.9L21,9.9z"/>
	<path id="Path_22" class="st1" d="M9.4,14.1c0.9,0,1.6,0.7,1.6,1.6c0,0,0,0,0,0v5.3c0,0.9-0.7,1.6-1.6,1.5c-0.8,0-1.5-0.7-1.5-1.5
		v-5.3C7.8,14.8,8.5,14.1,9.4,14.1C9.4,14.1,9.4,14.1,9.4,14.1z"/>
	<path id="Path_23" class="st1" d="M3.1,14.1h1.6v1.6c0,0.9-0.7,1.6-1.6,1.6c-0.9,0-1.6-0.7-1.6-1.6C1.5,14.8,2.2,14.1,3.1,14.1
		C3.1,14.1,3.1,14.1,3.1,14.1z"/>
	<path id="Path_24" class="st2" d="M14.1,14.6c0-0.9,0.7-1.6,1.6-1.6c0,0,0,0,0,0H21c0.9,0,1.6,0.7,1.5,1.6c0,0.8-0.7,1.5-1.5,1.5
		h-5.3C14.8,16.2,14.1,15.5,14.1,14.6C14.1,14.6,14.1,14.6,14.1,14.6z"/>
	<path id="Path_25" class="st2" d="M15.7,19.4h-1.6v1.6c0,0.9,0.7,1.6,1.6,1.6c0.9,0,1.6-0.7,1.6-1.6C17.3,20.1,16.6,19.4,15.7,19.4
		z"/>
	<path id="Path_26" class="st3" d="M9.9,9.4c0-0.9-0.7-1.6-1.6-1.6c0,0,0,0,0,0H3.1c-0.9,0-1.6,0.7-1.6,1.5c0,0.9,0.7,1.6,1.5,1.6
		c0,0,0.1,0,0.1,0h5.3C9.2,10.9,9.9,10.2,9.9,9.4C9.9,9.4,9.9,9.4,9.9,9.4z"/>
	<path id="Path_27" class="st3" d="M8.3,4.6h1.6V3.1c0-0.9-0.7-1.6-1.6-1.6c-0.9,0-1.6,0.7-1.6,1.6S7.5,4.6,8.3,4.6L8.3,4.6z"/>
</g>
</svg>
