<?xml version="1.0" encoding="utf-8"?>
<!-- Generator: Adobe Illustrator 25.4.1, SVG Export Plug-In . SVG Version: 6.00 Build 0)  -->
<svg version="1.1" id="Layer_1" xmlns="http://www.w3.org/2000/svg" xmlns:xlink="http://www.w3.org/1999/xlink" x="0px" y="0px"
	 viewBox="0 0 200 200" style="enable-background:new 0 0 200 200;" xml:space="preserve">
<style type="text/css">
	.st0{fill:#465B65;stroke:#728893;stroke-width:0.5;stroke-miterlimit:10;}
	.st1{fill:#465B65;}
	.st2{fill:#728893;}
</style>
<g>
	<g>
		<ellipse class="st0" cx="95.1" cy="75.6" rx="29.3" ry="10.5"/>
		<rect x="65.8" y="16.2" class="st1" width="58.6" height="58.2"/>
		<ellipse class="st0" cx="95.2" cy="17.4" rx="29.1" ry="10.5"/>
		<path class="st0" d="M124.3,36c0,5.8-13,10.5-29.1,10.5S66.1,41.8,66.1,36"/>
		<path class="st0" d="M124.3,54.6c0,5.8-13,10.5-29.1,10.5s-29.1-4.7-29.1-10.5"/>
	</g>
	<g>
		<g>
			<path class="st2" d="M93.8,95.7c0,3.3,0,6.6,0,9.9c0,1,1.5,1,1.5,0c0-3.3,0-6.6,0-9.9C95.3,94.8,93.8,94.8,93.8,95.7L93.8,95.7z"
				/>
		</g>
	</g>
	<g>
		<g>
			<path class="st2" d="M33.4,121.6c0,3.3,0,6.6,0,9.9c0,1,1.5,1,1.5,0c0-3.3,0-6.6,0-9.9C34.9,120.7,33.4,120.7,33.4,121.6
				L33.4,121.6z"/>
		</g>
	</g>
	<g>
		<g>
			<path class="st2" d="M84.1,108.2c-2.6,0-5.1,0-7.7,0c-1,0-1,1.5,0,1.5c2.6,0,5.1,0,7.7,0C85.1,109.7,85.1,108.2,84.1,108.2
				L84.1,108.2z"/>
		</g>
	</g>
	<g>
		<g>
			<path class="st2" d="M65.4,108.8c-2.9,0-5.9,0-8.8,0c-1,0-1,1.5,0,1.5c2.9,0,5.9,0,8.8,0C66.4,110.3,66.4,108.8,65.4,108.8
				L65.4,108.8z"/>
		</g>
	</g>
	<g>
		<g>
			<path class="st2" d="M43.8,108.8c-2.9,0-5.9,0-8.8,0c-1,0-1,1.5,0,1.5c2.9,0,5.9,0,8.8,0C44.8,110.3,44.8,108.8,43.8,108.8
				L43.8,108.8z"/>
		</g>
	</g>
	<g>
		<g>
			<path class="st2" d="M154.2,121.6c0,3.3,0,6.6,0,9.9c0,1,1.5,1,1.5,0c0-3.3,0-6.6,0-9.9C155.7,120.7,154.2,120.7,154.2,121.6
				L154.2,121.6z"/>
		</g>
	</g>
	<g>
		<g>
			<path class="st2" d="M93.8,121.6c0,3.3,0,6.6,0,9.9c0,1,1.5,1,1.5,0c0-3.3,0-6.6,0-9.9C95.3,120.7,93.8,120.7,93.8,121.6
				L93.8,121.6z"/>
		</g>
	</g>
	<g>
		<g>
			<path class="st2" d="M153.2,108.2c-2.6,0-5.1,0-7.7,0c-1,0-1,1.5,0,1.5c2.6,0,5.1,0,7.7,0C154.1,109.7,154.1,108.2,153.2,108.2
				L153.2,108.2z"/>
		</g>
	</g>
	<g>
		<g>
			<path class="st2" d="M134.4,108.8c-2.9,0-5.9,0-8.8,0c-1,0-1,1.5,0,1.5c2.9,0,5.9,0,8.8,0C135.4,110.3,135.4,108.8,134.4,108.8
				L134.4,108.8z"/>
		</g>
	</g>
	<g>
		<g>
			<path class="st2" d="M112.9,108.8c-2.9,0-5.9,0-8.8,0c-1,0-1,1.5,0,1.5c2.9,0,5.9,0,8.8,0C113.8,110.3,113.8,108.8,112.9,108.8
				L112.9,108.8z"/>
		</g>
	</g>
	<g>
		<ellipse class="st1" cx="34.3" cy="176.7" rx="30" ry="10.5"/>
		<rect x="4.3" y="155.1" class="st1" width="59.9" height="21.3"/>
		<ellipse class="st0" cx="34.4" cy="156.6" rx="29.1" ry="10.5"/>
	</g>
	<g>
		<ellipse class="st1" cx="99.6" cy="176.7" rx="30" ry="10.5"/>
		<rect x="69.6" y="155.1" class="st1" width="59.9" height="21.3"/>
		<ellipse class="st0" cx="99.6" cy="156.6" rx="29.1" ry="10.5"/>
	</g>
	<g>
		<ellipse class="st1" cx="164" cy="176.7" rx="30" ry="10.5"/>
		<rect x="134.1" y="155.1" class="st1" width="59.9" height="21.3"/>
		<ellipse class="st0" cx="164.1" cy="156.6" rx="29.1" ry="10.5"/>
	</g>
</g>
</svg>
