<?xml version="1.0" encoding="utf-8"?>
<!-- Generator: Adobe Illustrator 25.4.1, SVG Export Plug-In . SVG Version: 6.00 Build 0)  -->
<svg version="1.1" id="Layer_1" xmlns="http://www.w3.org/2000/svg" xmlns:xlink="http://www.w3.org/1999/xlink" x="0px" y="0px"
	 viewBox="0 0 24 24" style="enable-background:new 0 0 24 24;" xml:space="preserve">
<style type="text/css">
	.st0{fill:#777777;}
</style>
<path id="Icon_ionic-md-pricetag" class="st0" d="M21.18,1.01h-9.08L1.72,11.76c-0.95,0.95-0.96,2.49-0.01,3.44c0,0,0,0,0.01,0.01
	l7.09,7.08c0.45,0.42,1.03,0.67,1.64,0.7c0.66-0.02,1.3-0.27,1.8-0.7L23,12.01V2.85L21.18,1.01z M19.42,6.89
	c-0.97,0.29-1.99-0.26-2.29-1.23c-0.29-0.97,0.26-1.99,1.23-2.29c0.97-0.29,1.99,0.26,2.29,1.23c0.1,0.35,0.1,0.71,0,1.06
	C20.48,6.26,20.02,6.72,19.42,6.89z"/>
</svg>
