<?xml version="1.0" encoding="utf-8"?>
<!-- Generator: Adobe Illustrator 25.4.1, SVG Export Plug-In . SVG Version: 6.00 Build 0)  -->
<svg version="1.1" id="Layer_1" xmlns="http://www.w3.org/2000/svg" xmlns:xlink="http://www.w3.org/1999/xlink" x="0px" y="0px"
	 viewBox="0 0 24 24" style="enable-background:new 0 0 24 24;" xml:space="preserve">
<style type="text/css">
	.st0{fill:#777777;}
</style>
<path id="Icon_metro-insert-template" class="st0" d="M9.28,5.21H12v1.36H9.28V5.21z M13.36,5.21h2.72v1.36h-2.72V5.21z M20.15,5.21
	v5.43h-4.08V9.29h2.72V6.57h-1.36V5.21H20.15z M7.92,9.29h2.72v1.36H7.92V9.29z M12,9.29h2.72v1.36H12V9.29z M5.21,6.57v2.72h1.36
	v1.36H3.85V5.21h4.08v1.36H5.21z M9.28,13.36H12v1.36H9.28V13.36z M13.36,13.36h2.72v1.36h-2.72V13.36z M20.15,13.36v5.43h-4.08
	v-1.36h2.72v-2.72h-1.36v-1.36H20.15z M7.92,17.43h2.72v1.36H7.92V17.43z M12,17.43h2.72v1.36H12V17.43z M5.21,14.72v2.72h1.36v1.36
	H3.85v-5.43h4.08v1.36H5.21z M21.51,2.49H2.49v19.02h19.02V2.49z M22.87,1.13v21.73H1.13V1.13H22.87z"/>
</svg>
