<?xml version="1.0" encoding="utf-8"?>
<!-- Generator: Adobe Illustrator 26.0.2, SVG Export Plug-In . SVG Version: 6.00 Build 0)  -->
<svg version="1.1" id="Layer_1" xmlns="http://www.w3.org/2000/svg" xmlns:xlink="http://www.w3.org/1999/xlink" x="0px" y="0px"
	 viewBox="0 0 24 24" style="enable-background:new 0 0 24 24;" xml:space="preserve">
<style type="text/css">
	.st0{fill:#1DA1F2;enable-background:new    ;}
</style>
<path id="Icon_awesome-twitter" class="st0" d="M20.9,7.4c0,0.2,0,0.4,0,0.6C21,15.2,15.2,21,8,21.1c-0.1,0-0.1,0-0.2,0
	c-2.5,0-4.9-0.7-7-2.1c0.4,0,0.7,0.1,1.1,0.1c2.1,0,4.1-0.7,5.7-2c-2,0-3.7-1.3-4.3-3.2C3.6,14,3.9,14,4.2,14c0.4,0,0.8,0,1.2-0.1
	c-2.1-0.4-3.7-2.3-3.7-4.5V9.3C2.3,9.7,3,9.9,3.8,9.9c-2-1.3-2.6-4-1.4-6.1c2.3,2.9,5.8,4.6,9.5,4.8c-0.1-0.3-0.1-0.7-0.1-1.1
	c0-2.5,2.1-4.6,4.6-4.6c1.3,0,2.5,0.5,3.3,1.4c1-0.2,2-0.6,2.9-1.1c-0.3,1.1-1.1,2-2,2.5c0.9-0.1,1.8-0.3,2.6-0.7
	C22.6,6,21.8,6.8,20.9,7.4L20.9,7.4z"/>
</svg>
