<?xml version="1.0" encoding="utf-8"?>
<!-- Generator: Adobe Illustrator 26.0.2, SVG Export Plug-In . SVG Version: 6.00 Build 0)  -->
<svg version="1.1" id="Layer_1" xmlns="http://www.w3.org/2000/svg" xmlns:xlink="http://www.w3.org/1999/xlink" x="0px" y="0px"
	 viewBox="0 0 200 200" style="enable-background:new 0 0 200 200;" xml:space="preserve">
<style type="text/css">
	.st0{fill:#56C0EE;stroke:#273339;stroke-miterlimit:10;enable-background:new    ;}
	.st1{fill:#FFD742;stroke:#273339;stroke-miterlimit:10;enable-background:new    ;}
	.st2{fill:#F05555;stroke:#273339;stroke-miterlimit:10;enable-background:new    ;}
	.st3{fill:none;stroke:#273339;stroke-miterlimit:10;enable-background:new    ;}
	.st4{opacity:0.53;enable-background:new    ;}
	.st5{fill:#28343A;}
	.st6{fill:#273339;}
	.st7{fill:#253338;}
	.st8{opacity:0.53;fill:none;stroke:#28343A;stroke-miterlimit:10;enable-background:new    ;}
	.st9{opacity:0.53;fill:none;stroke:#253338;stroke-miterlimit:10;enable-background:new    ;}
</style>
<g>
	<rect x="52.7" y="63.4" class="st0" width="25.1" height="25.1"/>
	<rect x="95.3" y="50.9" class="st1" width="25.1" height="25.1"/>
	<rect x="110.3" y="91" class="st2" width="25.1" height="25.1"/>
	<rect x="97.8" y="136.1" class="st1" width="25.1" height="25.1"/>
	<rect x="67.7" y="101" class="st3" width="25.1" height="25.1"/>
	<rect x="147.9" y="68.4" class="st1" width="25.1" height="25.1"/>
	<rect x="135.4" y="121.1" class="st0" width="25.1" height="25.1"/>
	<g class="st4">
		<path class="st5" d="M124.9,192.6c-20.8-0.1-41.6-0.1-62.4-0.2"/>
		<g>
			<path class="st6" d="M124.9,191.8c-20.8-0.1-41.6-0.1-62.4-0.2c-1,0-1,1.5,0,1.5c20.8,0.1,41.6,0.1,62.4,0.2
				C125.9,193.3,125.9,191.8,124.9,191.8L124.9,191.8z"/>
		</g>
	</g>
	<g class="st4">
		<path class="st5" d="M54.7,192.6c-2.4-0.1-4.7-0.1-7.1-0.2"/>
		<g>
			<path class="st6" d="M54.7,191.8c-2.4-0.1-4.7-0.1-7.1-0.2c-1,0-1,1.5,0,1.5c2.4,0.1,4.7,0.1,7.1,0.2
				C55.7,193.3,55.7,191.8,54.7,191.8L54.7,191.8z"/>
		</g>
	</g>
	<g class="st4">
		<g>
			<g>
				<path class="st6" d="M173.4,25.4c0,4,0,8,0,12c0,1,1.5,1,1.5,0c0-4,0-8,0-12C174.9,24.4,173.4,24.4,173.4,25.4L173.4,25.4z"/>
			</g>
		</g>
		<g>
			<path class="st7" d="M168,31.6c4,0,8,0,12,0"/>
			<g>
				<path class="st6" d="M168,32.4c4,0,8,0,12,0c1,0,1-1.5,0-1.5c-4,0-8,0-12,0C167.1,30.9,167.1,32.4,168,32.4L168,32.4z"/>
			</g>
		</g>
	</g>
	<g class="st4">
		<g>
			<g>
				<path class="st6" d="M150.8,5.3c0,4,0,8,0,12c0,1,1.5,1,1.5,0c0-4,0-8,0-12C152.3,4.4,150.8,4.4,150.8,5.3L150.8,5.3z"/>
			</g>
		</g>
		<g>
			<path class="st7" d="M145.5,11.6c4,0,8,0,12,0"/>
			<g>
				<path class="st6" d="M145.5,12.3c4,0,8,0,12,0c1,0,1-1.5,0-1.5c-4,0-8,0-12,0C144.5,10.8,144.5,12.3,145.5,12.3L145.5,12.3z"/>
			</g>
		</g>
	</g>
	<path class="st8" d="M31.3,167.5c0,0-12.5,0-12.5-10v-132c0,0-1.3-9.6,7.5-10.9H127c0,0,8.3-1.3,7.1,12.5"/>
	<path class="st9" d="M147.9,63.4V40.9c0,0,0-10-10.1-9.2H47.2c0,0-12.1-0.8-12.1,14.2v130.4c0,0,0,7.5,12.5,7.5h87.7
		c0,0,15,0,15-10v-21.6"/>
	<g class="st4">
		<g>
			<path class="st6" d="M148.2,100.6c0,4.2,0,8.3,0,12.5c0,1,1.5,1,1.5,0c0-4.2,0-8.3,0-12.5C149.7,99.6,148.2,99.6,148.2,100.6
				L148.2,100.6z"/>
		</g>
	</g>
</g>
</svg>
