<?xml version="1.0" encoding="utf-8"?>
<!-- Generator: Adobe Illustrator 25.4.1, SVG Export Plug-In . SVG Version: 6.00 Build 0)  -->
<svg version="1.1" id="Layer_1" xmlns="http://www.w3.org/2000/svg" xmlns:xlink="http://www.w3.org/1999/xlink" x="0px" y="0px"
	 viewBox="0 0 24 24" style="enable-background:new 0 0 24 24;" xml:space="preserve">
<style type="text/css">
	.st0{fill:#777777;}
</style>
<path id="Icon_material-border-horizontal" class="st0" d="M1.13,22.87h2.41v-2.41H1.13V22.87z M3.55,5.96H1.13v2.41h2.41V5.96z
	 M1.13,18.04h2.41v-2.41H1.13V18.04z M5.96,22.87h2.41v-2.41H5.96V22.87z M3.55,1.13H1.13v2.41h2.41V1.13z M8.38,1.13H5.96v2.41
	h2.41V1.13z M18.04,1.13h-2.41v2.41h2.41V1.13z M13.21,5.96h-2.41v2.41h2.41V5.96z M13.21,1.13h-2.41v2.41h2.41V1.13z M20.45,18.04
	h2.41v-2.41h-2.41V18.04z M10.79,22.87h2.41v-2.41h-2.41V22.87z M1.13,13.21h21.73v-2.41H1.13V13.21z M20.45,1.13v2.41h2.41V1.13
	H20.45z M20.45,8.38h2.41V5.96h-2.41V8.38z M10.79,18.04h2.41v-2.41h-2.41V18.04z M15.62,22.87h2.41v-2.41h-2.41V22.87z
	 M20.45,22.87h2.41v-2.41h-2.41V22.87z"/>
</svg>
