<?xml version="1.0" encoding="utf-8"?>
<!-- Generator: Adobe Illustrator 25.4.1, SVG Export Plug-In . SVG Version: 6.00 Build 0)  -->
<svg version="1.1" id="Layer_1" xmlns="http://www.w3.org/2000/svg" xmlns:xlink="http://www.w3.org/1999/xlink" x="0px" y="0px"
	 viewBox="0 0 24 24" style="enable-background:new 0 0 24 24;" xml:space="preserve">
<style type="text/css">
	.st0{fill:#6B6B6B;}
</style>
<path id="_Color" class="st0" d="M12,20c-2.56,0.01-5.07-0.78-7.17-2.24C2.77,16.33,1.18,14.33,0.27,12
	c2.54-6.48,9.86-9.67,16.34-7.12c3.26,1.28,5.84,3.86,7.12,7.12c-0.91,2.33-2.5,4.33-4.56,5.76C17.07,19.22,14.56,20.01,12,20z
	 M12,6.67c-2.95,0-5.33,2.39-5.33,5.33s2.39,5.33,5.33,5.33s5.33-2.39,5.33-5.33C17.33,9.06,14.94,6.67,12,6.67z M12,15.2
	c-1.77,0-3.2-1.43-3.2-3.2s1.43-3.2,3.2-3.2s3.2,1.43,3.2,3.2S13.77,15.2,12,15.2z"/>
</svg>
